<svg xmlns="http://www.w3.org/2000/svg" xmlns:xlink="http://www.w3.org/1999/xlink" id="v2" version="1.1" viewBox="0 0 1920 574"><defs><linearGradient id="linear-gradient" x1="955.1" x2="970.9" y1="97.8" y2="-501.8" gradientTransform="translate(0 72) scale(1 -1)" gradientUnits="userSpaceOnUse"><stop offset="0" stop-color="#3f60ff"/><stop offset="1" stop-color="#5a7fe6"/></linearGradient><linearGradient id="linear-gradient-2" x1="962.9" x2="957.6" y1="273.9" y2="-416.1" gradientTransform="translate(0 72) scale(1 -1)" gradientUnits="userSpaceOnUse"><stop offset="0" stop-color="#368eed"/><stop offset="0" stop-color="#44aaf2"/><stop offset="0" stop-color="#53c6f7"/><stop offset=".2" stop-color="#5ddafb"/><stop offset=".3" stop-color="#63e6fe"/><stop offset=".3" stop-color="#66ebff"/><stop offset=".4" stop-color="#63e6fe"/><stop offset=".8" stop-color="#42a6f1"/><stop offset=".9" stop-color="#368eed"/></linearGradient><linearGradient id="linear-gradient-3" x1="92" x2="345.2" y1="-442.2" y2="-190.8" gradientTransform="translate(0 72) scale(1 -1)" gradientUnits="userSpaceOnUse"><stop offset="0" stop-color="#3268ed"/><stop offset="1" stop-color="#43c3ff"/></linearGradient><linearGradient id="linear-gradient-4" x1="8.6" x2="249.6" y1="-353.8" y2="-165.1" gradientTransform="translate(0 72) scale(1 -1)" gradientUnits="userSpaceOnUse"><stop offset="0" stop-color="#3268ed"/><stop offset="1" stop-color="#43c3ff"/></linearGradient><linearGradient id="linear-gradient-5" x1="102.8" x2="545.6" y1="-639.6" y2="-103.7" gradientTransform="translate(0 72) scale(1 -1)" gradientUnits="userSpaceOnUse"><stop offset="0" stop-color="#3268ed"/><stop offset="1" stop-color="#43c3ff"/></linearGradient><linearGradient id="linear-gradient-6" x1="71.8" x2="240.2" y1="-303.7" y2="-130.6" gradientTransform="translate(0 72) scale(1 -1)" gradientUnits="userSpaceOnUse"><stop offset="0" stop-color="#3268ed"/><stop offset="1" stop-color="#43c3ff"/></linearGradient><linearGradient id="linear-gradient-7" x1="248.1" x2="474" y1="-482.6" y2="-229" gradientTransform="translate(0 72) scale(1 -1)" gradientUnits="userSpaceOnUse"><stop offset="0" stop-color="#3268ed"/><stop offset="1" stop-color="#43c3ff"/></linearGradient><linearGradient id="linear-gradient-8" x1="1905.4" x2="1598.9" y1="235.5" y2="-222.1" gradientTransform="translate(0 72) scale(1 -1)" gradientUnits="userSpaceOnUse"><stop offset="0" stop-color="#3268ed"/><stop offset=".6" stop-color="#43c3ff"/></linearGradient><linearGradient id="linear-gradient-9" x1="1895.4" x2="1732.3" y1="260" y2="-24.6" gradientTransform="translate(0 72) scale(1 -1)" gradientUnits="userSpaceOnUse"><stop offset="0" stop-color="#3268ed"/><stop offset="1" stop-color="#43c3ff"/></linearGradient><linearGradient id="linear-gradient-10" x1="1799.8" x2="1743.4" y1="321.3" y2="-105.7" gradientTransform="translate(0 72) scale(1 -1)" gradientUnits="userSpaceOnUse"><stop offset="0" stop-color="#3268ed"/><stop offset="1" stop-color="#43c3ff"/></linearGradient><linearGradient id="linear-gradient-11" x1="1666.7" x2="1642.3" y1="-270.8" y2="-291.3" gradientTransform="translate(82.1 311.5) rotate(-8) scale(1 -1)" gradientUnits="userSpaceOnUse"><stop offset="0" stop-color="#fffefc"/><stop offset="0" stop-color="#fffaf0"/><stop offset=".2" stop-color="#ffeabc"/><stop offset=".3" stop-color="#ffdc90"/><stop offset=".4" stop-color="#ffd16b"/><stop offset=".6" stop-color="#ffc84f"/><stop offset=".7" stop-color="#ffc23b"/><stop offset=".9" stop-color="#ffbe2f"/><stop offset="1" stop-color="#ffbd2b"/></linearGradient><linearGradient id="linear-gradient-12" x1="1388.1" x2="1329.3" y1="-413" y2="-443.2" gradientTransform="translate(0 72) scale(1 -1)" gradientUnits="userSpaceOnUse"><stop offset="0" stop-color="#fffefc"/><stop offset=".3" stop-color="#fff0d2"/><stop offset=".5" stop-color="#ffda8b"/><stop offset=".8" stop-color="#ffca57"/><stop offset=".9" stop-color="#ffc037"/><stop offset="1" stop-color="#ffbd2b"/></linearGradient><linearGradient id="linear-gradient-13" x1="365.1" x2="383.4" y1="-441" y2="-467.9" gradientTransform="translate(0 72) scale(1 -1)" gradientUnits="userSpaceOnUse"><stop offset="0" stop-color="#fffefc"/><stop offset="0" stop-color="#fffaf0"/><stop offset=".2" stop-color="#ffeabc"/><stop offset=".3" stop-color="#ffdc90"/><stop offset=".4" stop-color="#ffd16b"/><stop offset=".6" stop-color="#ffc84f"/><stop offset=".7" stop-color="#ffc23b"/><stop offset=".9" stop-color="#ffbe2f"/><stop offset="1" stop-color="#ffbd2b"/></linearGradient><linearGradient id="linear-gradient-14" x1="371.3" x2="360.9" y1="-452.2" y2="-433.3" gradientTransform="translate(0 72) scale(1 -1)" gradientUnits="userSpaceOnUse"><stop offset=".2" stop-color="#fffefc"/><stop offset=".4" stop-color="#ffeabd"/><stop offset=".7" stop-color="#ffd26f"/><stop offset=".9" stop-color="#ffc23e"/><stop offset="1" stop-color="#ffbd2b"/></linearGradient><linearGradient id="linear-gradient-15" x1="375.2" x2="354.4" y1="-245" y2="-264.5" gradientTransform="translate(0 72) scale(1 -1)" gradientUnits="userSpaceOnUse"><stop offset=".2" stop-color="#fffefc"/><stop offset=".3" stop-color="#fff6e4"/><stop offset=".5" stop-color="#ffe3a8"/><stop offset=".9" stop-color="#ffc648"/><stop offset="1" stop-color="#ffbd2b"/></linearGradient><linearGradient id="linear-gradient-16" x1="307.5" x2="325.9" y1="-395.1" y2="-416.7" gradientTransform="translate(0 72) scale(1 -1)" gradientUnits="userSpaceOnUse"><stop offset=".2" stop-color="#fffefc"/><stop offset=".4" stop-color="#ffeabd"/><stop offset=".7" stop-color="#ffd26f"/><stop offset=".9" stop-color="#ffc23e"/><stop offset="1" stop-color="#ffbd2b"/></linearGradient><linearGradient id="linear-gradient-17" x1="380.3" x2="391.5" y1="-306.2" y2="-340.1" gradientTransform="translate(0 72) scale(1 -1)" gradientUnits="userSpaceOnUse"><stop offset="0" stop-color="#fffefc"/><stop offset=".2" stop-color="#fffaf0"/><stop offset=".3" stop-color="#fff1d2"/><stop offset=".6" stop-color="#ffe2a2"/><stop offset=".8" stop-color="#ffcd5f"/><stop offset="1" stop-color="#ffbd2b"/></linearGradient><linearGradient id="linear-gradient-18" x1="360.5" x2="403.9" y1="-344.6" y2="-346" gradientTransform="translate(0 72) scale(1 -1)" gradientUnits="userSpaceOnUse"><stop offset="0" stop-color="#fffefc"/><stop offset="0" stop-color="#fffcf8"/><stop offset=".2" stop-color="#fff9ec"/><stop offset=".3" stop-color="#fff3d8"/><stop offset=".4" stop-color="#ffeabd"/><stop offset=".6" stop-color="#ffdf9a"/><stop offset=".7" stop-color="#ffd26e"/><stop offset=".8" stop-color="#ffc23c"/><stop offset=".8" stop-color="#ffbd2b"/></linearGradient><linearGradient id="linear-gradient-19" x1="430.7" x2="395.4" y1="-323" y2="-341.6" gradientTransform="translate(0 72) scale(1 -1)" gradientUnits="userSpaceOnUse"><stop offset=".2" stop-color="#fffefc"/><stop offset=".3" stop-color="#fff6e4"/><stop offset=".6" stop-color="#ffe3a8"/><stop offset=".9" stop-color="#ffc648"/><stop offset="1" stop-color="#ffbd2b"/></linearGradient><linearGradient id="linear-gradient-20" x1="427.2" x2="394.7" y1="-359.7" y2="-338.4" gradientTransform="translate(0 72) scale(1 -1)" gradientUnits="userSpaceOnUse"><stop offset="0" stop-color="#fffefc"/><stop offset=".2" stop-color="#fffcf6"/><stop offset=".3" stop-color="#fff7e6"/><stop offset=".5" stop-color="#ffefcc"/><stop offset=".6" stop-color="#ffe4a8"/><stop offset=".8" stop-color="#ffd579"/><stop offset=".9" stop-color="#ffc441"/><stop offset="1" stop-color="#ffbd2b"/></linearGradient><linearGradient id="linear-gradient-21" x1="386.7" x2="393.4" y1="-378" y2="-343.3" gradientTransform="translate(0 72) scale(1 -1)" gradientUnits="userSpaceOnUse"><stop offset="0" stop-color="#fffefc"/><stop offset=".2" stop-color="#fffcf8"/><stop offset=".3" stop-color="#fff9ed"/><stop offset=".4" stop-color="#fff3db"/><stop offset=".6" stop-color="#ffecc2"/><stop offset=".7" stop-color="#ffe1a1"/><stop offset=".8" stop-color="#ffd579"/><stop offset=".9" stop-color="#ffc74b"/><stop offset="1" stop-color="#ffbd2b"/></linearGradient><linearGradient id="linear-gradient-22" x1="647.2" x2="666" y1="-359.3" y2="-373" gradientTransform="translate(0 72) scale(1 -1)" gradientUnits="userSpaceOnUse"><stop offset=".3" stop-color="#fffefc"/><stop offset=".5" stop-color="#ffecc4"/><stop offset=".7" stop-color="#ffd883"/><stop offset=".8" stop-color="#ffc953"/><stop offset=".9" stop-color="#ffc036"/><stop offset="1" stop-color="#ffbd2b"/></linearGradient><linearGradient id="linear-gradient-23" x1="654.5" x2="670.7" y1="-364.9" y2="-379.7" gradientTransform="translate(0 72) scale(1 -1)" gradientUnits="userSpaceOnUse"><stop offset=".3" stop-color="#fffefc"/><stop offset=".4" stop-color="#fffaf0"/><stop offset=".5" stop-color="#fff0d0"/><stop offset=".7" stop-color="#ffe09d"/><stop offset=".9" stop-color="#ffcb58"/><stop offset="1" stop-color="#ffbd2b"/></linearGradient><linearGradient id="linear-gradient-24" x1="328.7" x2="338" y1="-274.4" y2="-288.8" gradientTransform="translate(0 72) scale(1 -1)" gradientUnits="userSpaceOnUse"><stop offset="0" stop-color="#fffefc"/><stop offset=".2" stop-color="#fffcf8"/><stop offset=".3" stop-color="#fff9ed"/><stop offset=".4" stop-color="#fff3db"/><stop offset=".6" stop-color="#ffecc2"/><stop offset=".7" stop-color="#ffe1a1"/><stop offset=".8" stop-color="#ffd579"/><stop offset=".9" stop-color="#ffc74b"/><stop offset="1" stop-color="#ffbd2b"/></linearGradient><linearGradient id="linear-gradient-25" x1="334.2" x2="340.3" y1="-280.8" y2="-301.1" gradientTransform="translate(0 72) scale(1 -1)" gradientUnits="userSpaceOnUse"><stop offset="0" stop-color="#fffefc"/><stop offset=".2" stop-color="#fffcf8"/><stop offset=".3" stop-color="#fff9ed"/><stop offset=".4" stop-color="#fff3db"/><stop offset=".6" stop-color="#ffecc2"/><stop offset=".7" stop-color="#ffe1a1"/><stop offset=".8" stop-color="#ffd579"/><stop offset=".9" stop-color="#ffc74b"/><stop offset="1" stop-color="#ffbd2b"/></linearGradient><linearGradient id="linear-gradient-26" x1="318" x2="306.2" y1="650.3" y2="679.8" gradientTransform="translate(0 -504)" gradientUnits="userSpaceOnUse"><stop offset=".3" stop-color="#fffefc"/><stop offset="1" stop-color="#fffefc" stop-opacity="0"/></linearGradient><linearGradient id="linear-gradient-27" x1="1551" x2="1586.8" y1="818.8" y2="846.8" gradientTransform="translate(0 -504)" gradientUnits="userSpaceOnUse"><stop offset=".3" stop-color="#fffefc"/><stop offset="1" stop-color="#fffefc" stop-opacity="0"/></linearGradient><linearGradient id="linear-gradient-28" x1="1702.3" x2="1702.3" y1="-205.1" y2="-250.7" gradientTransform="translate(0 72) scale(1 -1)" gradientUnits="userSpaceOnUse"><stop offset="0" stop-color="#fffefc"/><stop offset="0" stop-color="#fffcf6"/><stop offset=".2" stop-color="#fff7e7"/><stop offset=".4" stop-color="#fff0cf"/><stop offset=".6" stop-color="#ffe5ac"/><stop offset=".7" stop-color="#ffd780"/><stop offset=".9" stop-color="#ffc74b"/><stop offset="1" stop-color="#ffbd2b"/></linearGradient><linearGradient id="linear-gradient-29" x1="1657.8" x2="1692.5" y1="-217.6" y2="-249.1" gradientTransform="translate(0 72) scale(1 -1)" gradientUnits="userSpaceOnUse"><stop offset=".2" stop-color="#fffefc"/><stop offset=".3" stop-color="#fffcf6"/><stop offset=".4" stop-color="#fff7e6"/><stop offset=".6" stop-color="#ffefcc"/><stop offset=".7" stop-color="#ffe4a8"/><stop offset=".8" stop-color="#ffd57a"/><stop offset=".9" stop-color="#ffc442"/><stop offset="1" stop-color="#ffbd2b"/></linearGradient><linearGradient id="linear-gradient-30" x1="1731.3" x2="1701.7" y1="-242.5" y2="-259.4" gradientTransform="translate(0 72) scale(1 -1)" gradientUnits="userSpaceOnUse"><stop offset="0" stop-color="#fffefc"/><stop offset=".2" stop-color="#fffcf6"/><stop offset=".3" stop-color="#fff7e7"/><stop offset=".4" stop-color="#ffefcd"/><stop offset=".6" stop-color="#ffe4a9"/><stop offset=".8" stop-color="#ffd67b"/><stop offset=".9" stop-color="#ffc544"/><stop offset="1" stop-color="#ffbd2b"/></linearGradient><linearGradient id="linear-gradient-31" x1="1708.9" x2="1695.9" y1="-284.2" y2="-244.3" gradientTransform="translate(0 72) scale(1 -1)" gradientUnits="userSpaceOnUse"><stop offset="0" stop-color="#fffefc"/><stop offset=".2" stop-color="#fffcf6"/><stop offset=".3" stop-color="#fff7e7"/><stop offset=".4" stop-color="#ffefcd"/><stop offset=".6" stop-color="#ffe4a9"/><stop offset=".8" stop-color="#ffd67b"/><stop offset=".9" stop-color="#ffc544"/><stop offset="1" stop-color="#ffbd2b"/></linearGradient><linearGradient id="linear-gradient-32" x1="1664.4" x2="1703.4" y1="-272.7" y2="-232.8" gradientTransform="translate(0 72) scale(1 -1)" gradientUnits="userSpaceOnUse"><stop offset="0" stop-color="#fffefc"/><stop offset=".2" stop-color="#fffcf6"/><stop offset=".3" stop-color="#fff7e7"/><stop offset=".4" stop-color="#ffefcd"/><stop offset=".6" stop-color="#ffe4a9"/><stop offset=".8" stop-color="#ffd67b"/><stop offset=".9" stop-color="#ffc544"/><stop offset="1" stop-color="#ffbd2b"/></linearGradient><linearGradient id="linear-gradient-33" x1="1800.3" x2="1860.9" y1="-343.5" y2="-370.7" gradientTransform="translate(0 72) scale(1 -1)" gradientUnits="userSpaceOnUse"><stop offset=".5" stop-color="#fffefc"/><stop offset=".5" stop-color="#fffbf5"/><stop offset=".6" stop-color="#ffe5ae"/><stop offset=".8" stop-color="#ffd475"/><stop offset=".9" stop-color="#ffc74d"/><stop offset=".9" stop-color="#ffbf34"/><stop offset="1" stop-color="#ffbd2b"/></linearGradient><linearGradient id="linear-gradient-34" x1="1875.4" x2="1790.3" y1="-376.6" y2="-337.6" gradientTransform="translate(0 72) scale(1 -1)" gradientUnits="userSpaceOnUse"><stop offset="0" stop-color="#fffefc"/><stop offset="0" stop-color="#fff6e3"/><stop offset=".3" stop-color="#ffe2a2"/><stop offset=".6" stop-color="#ffd26e"/><stop offset=".8" stop-color="#ffc649"/><stop offset=".9" stop-color="#ffbf33"/><stop offset="1" stop-color="#ffbd2b"/></linearGradient><linearGradient id="linear-gradient-35" x1="1476.4" x2="1464.3" y1="-391.4" y2="-404.3" gradientTransform="translate(0 72) scale(1 -1)" gradientUnits="userSpaceOnUse"><stop offset="0" stop-color="#fffefc"/><stop offset=".2" stop-color="#fffcf6"/><stop offset=".3" stop-color="#fff7e7"/><stop offset=".4" stop-color="#ffefcd"/><stop offset=".6" stop-color="#ffe4a9"/><stop offset=".8" stop-color="#ffd67b"/><stop offset=".9" stop-color="#ffc544"/><stop offset="1" stop-color="#ffbd2b"/></linearGradient><linearGradient id="linear-gradient-36" x1="1488.4" x2="1431.6" y1="-385" y2="-429.4" gradientTransform="translate(0 72) scale(1 -1)" gradientUnits="userSpaceOnUse"><stop offset=".3" stop-color="#fffefc"/><stop offset=".4" stop-color="#fffcf6"/><stop offset=".5" stop-color="#fff7e7"/><stop offset=".5" stop-color="#ffefcd"/><stop offset=".6" stop-color="#ffe4a9"/><stop offset=".7" stop-color="#ffd67b"/><stop offset=".8" stop-color="#ffc544"/><stop offset=".8" stop-color="#ffbd2b"/></linearGradient><style>.cls-2,.cls-3,.cls-4,.cls-5,.cls-6,.cls-7{fill:none;stroke-miterlimit:10}.cls-10,.cls-26,.cls-27,.cls-28{isolation:isolate}.cls-10,.cls-29{opacity:.2}.cls-2{stroke-width:.8px}.cls-2,.cls-4,.cls-6,.cls-7{stroke:#4f3b18}.cls-3{stroke-width:.3px}.cls-3,.cls-5{stroke:#385669}.cls-10,.cls-26,.cls-27,.cls-28,.cls-31,.cls-32,.cls-33,.cls-35,.cls-39,.cls-40,.cls-67,.cls-68,.cls-71,.cls-73,.cls-74,.cls-75,.cls-76,.cls-78,.cls-81{stroke-width:0}.cls-31{fill:#fadcf7}.cls-28,.cls-32{fill:#eee}.cls-33{fill:#ff8c44}.cls-35{fill:#56abc2}.cls-10{fill:#dbf0ff}.cls-4{stroke-width:.5px}.cls-39{fill:#4f3b18}.cls-40{fill:#c6f3fe}.cls-27,.cls-28{opacity:.3}.cls-67{fill:#a5ecfe}.cls-68{fill:#f494b9}.cls-5{stroke-width:.4px}.cls-83{opacity:.7}.cls-71{fill:#a6ebff}.cls-73{fill:#385669}.cls-74{fill:#f58742}.cls-75{fill:#4990a3}.cls-26{fill:#a9e4f9}.cls-27,.cls-76{fill:#fff}.cls-78{fill:#52a2b8}.cls-7{stroke-width:.6px}.cls-81{fill:#e3f2ff}</style></defs><g id="bg"><rect width="1920" height="574" y="-.4" class="cls-76"/><path d="M1920,282.4v64.6h0v5.2h0c-.2.2-.3.5-.5.7-10.6,13.6-74.9,62.8-133.4,79.9-58.3,17.1-106.1-1-120.7-5.8-128-42.4-210,149.9-438.1,77.8,8.2,2.6,16.3,4.6,24.3,6.1h.2c28.2,5.3,54.4,4.1,79.4-1.8,111.6-26.3,197.2-146.1,314.4-195.4,85.8-32.1,168.6-74.8,253.2-74l20.3-.9h1v43.4h0v.2h-.1Z" style="isolation:isolate" fill="#52b1ff" stroke-width="0" opacity=".2"/><path id="path355" d="M807.1,337s-517.6,35.7-527.3,49.8c-93.1,136.2,55.2,217.3,183.1,153.2,172.4-86.3,313.8-104.3,456.8-10.2s-112.6-192.8-112.6-192.8h0Z" class="cls-81"/><path d="M1920.1,284.1v62.8h0c-.2.1-.4.3-.6.4-4.9,3.7-9.8,7.2-14.5,10.6h0c-.5.5-5.4,4.1-12.9,9.2-.4.3-.8.5-1.2.8-17.7,11.8-48.8,30.9-76.3,40.9-49.1,17.8-85.8,11-128.9-4.3-63.9-22.7-121.3,25.2-198.9,63.5h0c-10.7,5.3-21.8,10.4-33.4,15.1h-.2c-20.8,8.5-43,15.6-67.2,20.3h0c-18.7,3.6-36.8,5.4-54.7,5.7-30,.5-59.3-3.4-89.5-10.5-.2,0-.4-.1-.6-.1-1.6-.4-3.2-.8-4.7-1.1l-6-1.5h0c5.2-2.8,10.4-5.4,15.6-8.1,2.4-1.2,4.9-2.5,7.3-3.7,0,0,.2,0,.3-.1,16.6-8.4,33.1-16.7,49.5-24.9,77.2-38.5,150.8-73.7,216.3-103.7,4.5-2,9-4.1,13.6-6.2,42.4-19.2,89.6-40.1,131.5-57.4l1.2-.5c29.5-12.3,61.4-24.8,61.7-24.8,41.1-15.8,148.5-56.4,191.5-49.2h0s-.2,0,.3,21.6c0,5.2.3,11.8.4,19.9.2,6.3.3,13.5.6,21.9v3.4h-.2Z" class="cls-81"/><path fill="url(#linear-gradient)" stroke-width="0" d="M1920-.6v352.9c-4.8,2.6-11.5,6.3-15.2,8.3h0c-7.4,4.1-48.6,28.5-104.9,30.1-21.4.6-42.5-2.6-62.1-10.7h0c-41.3-13.6-54.6-49.4-75.2-51.6-6.6-.7-22.2-2.2-38.9,19.6-25.5,33.4-71,71.4-105.8,95.8h0c-30.6,21.5-60.9,39.1-82.6,47.1-15.1,5.6-32.2,10.8-49.6,15.1h0c-15.9,4-71.6,18.8-125.4,6.8h-.2c-89.7-18-174.1-72.3-254.5-3-16.9,14.5-19.6,47.6-18.5,63.6h-29.9c-89-94.2-223.5-126.2-352.4-103.2,0-.1-.6-.4-.5-.3-50.7,9.2-76.2,20.5-122.6,36.3-84.2,25.2-203.1,40.2-220.5-45.9-3.9-19.5-2.1-31.8,2.6-44.7h0c5.1-13.9,13.2-25.7,22.9-36.7q2.9-3.3,0,0c1.7-1.9,21.2-21.7,25.3-27.1h0c3.2-4.3,5-8.6,1.2-12.4-3.7-3.8-10.2-5.7-10.6-5.7C246.2,317.7,45.9,390.4,0,322.1V-.6h1920Z"/><path fill="url(#linear-gradient-2)" stroke-width="0" d="M1920-.6v352.9c-4.8,2.6-11.5,6.3-15.2,8.3h0c-7.4,4.1-48.6,28.5-104.9,30.1-21.4.6-42.5-2.6-62.1-10.7h0c-41.3-13.6-54.6-49.4-75.2-51.6-6.6-.7-22.2-2.2-38.9,19.6-25.5,33.4-71,71.4-105.8,95.8h0c-30.6,21.5-60.9,39.1-82.6,47.1-15.1,5.6-32.2,10.8-49.6,15.1h0c-15.9,4-71.6,18.8-125.4,6.8h-.2c-89.7-18-174.1-72.3-254.5-3-16.9,14.5-19.6,47.6-18.5,63.6h-29.9c-89-94.2-223.5-126.2-352.4-103.2,0-.1-.6-.4-.5-.3-50.7,9.2-76.2,20.5-122.6,36.3-84.2,25.2-203.1,40.2-220.5-45.9-3.9-19.5-2.1-31.8,2.6-44.7h0c5.1-13.9,13.2-25.7,22.9-36.7q2.9-3.3,0,0c1.7-1.9,21.2-21.7,25.3-27.1h0c3.2-4.3,5-8.6,1.2-12.4-3.7-3.8-10.2-5.7-10.6-5.7C246.2,317.7,45.9,390.4,0,322.1V-.6h1920Z"/><path d="M959.8,573.4h-2.8c-48.8-51.6-111.3-84.6-179-100h0c-19.9-6.6-62.1-17.5-117-22.8h0c-70.2-6.8-162.5-5.5-260.3,21.6-3.4.9-6.7,1.8-10,2.6-71.2,16.8-112,20.8-129.6-21.7-1.2-2.8-1.9-8.7-2.1-13.2.3-8.2,1.8-16.5,4.6-24.2h0c5.2-13.9,13.2-25.7,22.9-36.7q2.9-3.3,0,0c1.7-1.9,3.4-3.7,5-5.5q.5-.5,0,0c.8-.9,1.6-1.7,2.5-2.6h0c7.7-8,13.8-13.7,17.8-19h0c3.3-4.4,4.9-8.6,1.2-12.4-3.7-3.8-10.2-5.7-10.6-5.7-28-8-91.4,6-154,13.6-.2,0-.5,0-.8.1-7.6.9-15.1,1.8-22.6,2.4-40.9,3.8-102.2,6-124.9-27.9v-27.2c17.1-27.3,49.8-72,104.3-106.8,176.9-113.1,446.9-35.8,460.1,44.3,10.6,64.9-148,126.9-131.8,166.2,12.5,30.5,110.1,6.7,219.3,14.4,75.5,5.3,182.5,36.8,307.9,160.4h-.1Z" class="cls-10"/><path d="M1920,153.6v198.6c-4.8,2.6-11.5,6.3-15.1,8.3h0c-49.8,27.8-114.3,41.1-167,19.4h0c-41.3-13.6-54.6-49.4-75.2-51.6-6.6-.7-22.2-2.2-38.9,19.6-33.8,44.3-104.4,95.9-105.8,95.9-30.6,21.5-60.9,39.1-82.6,47.1-19.2,7.1-36.1,11.5-52.7,15.9-53.4,12.9-73.8,11.8-97.9,9.7-5.9-.6-21.7-2.8-24.8-3.8-11.8,0-91.3-27.4-129.2-34h0c-54.9-9.5-92.4,2.6-125.3,31-16.9,14.5-19.6,47.6-18.5,63.6h-2.9c1.8-46.6,10.6-60,35.3-82.7,24.7-22.8,55.4-38.4,85.1-45.7,69.8-17.2,112.5,14.8,198.6,14.3,19.3-.1,40.7-1.9,65.1-6.1,20.9-3.7,75.4-14.8,124.6-56.1,21.8-18.3,36.7-30.9,40.2-47.7,12-57.4-110.2-89.4-104.1-138.2,2.5-20.1,25.1-32.4,36.2-38.4,123.2-67.4,286.8,98,405.8,29.8,13.7-7.9,31.9-21.7,48.6-47.9.2-.3.4-.6.6-.9h0Z" class="cls-10"/><g id="g679"><path id="path671" d="M774.2,507.3c-22.7-1.7-39,4-63.3,20-38.3-12.7-45-32.9-45-32.9,30.3-26.1,91.1-18.4,105.2-13.5,0,11.9,3.1,26.4,3.1,26.4h0Z" style="isolation:isolate" fill="#52b1ff" stroke-width="0" opacity=".3"/><g id="g677"><path id="path673" d="M1220.7,458.6c.8-.6,1.9-.5,2.5.3h0c6.2,8.1,21.2,25.6,27.6,23,.9-.4,2,0,2.4.9.2.4.2.8,0,1.2-3.4,13.4-18.8,18.7-32.1,21-16.8,2.9-34.3,3.1-47.3.3-.3-.1-.7-.2-.9-.5-6.9-6.7-9.6-18.7-10.5-23.6-.2-1,.5-2,1.5-2.1,21.6,0,39.3-7.5,56.7-20.5h.1Z" style="isolation:isolate" fill="#7ac3ff" stroke-width="0" opacity=".3"/><path id="path675" d="M1203.5,507.5c22.3-1.4,39.1-9.2,47.8-29,6.9,7.1-.7,26.3-47.8,29Z" style="isolation:isolate" fill="#d4e7ec" stroke-width="0" opacity=".5"/></g></g></g><g id="planets"><g id="bottom_planet" data-name="bottom planet"><path d="M383.4,414c-.1.6-.1,1.1-.1,1.7v6.2h0v2h0v1.8c0,.6,0,1.2-.1,1.7v1h0c0,.6,0,1.1-.1,1.6,0,.7-.1,1.4-.2,2s-.1,1.4-.2,2c-.3,2.7-.6,5.4-1,8.1,0,.4-.1.8-.2,1.1h0v.2c0,.5-.1.9-.2,1.4-.1.9-.3,1.7-.4,2.6,0,.3-.1.7-.2,1-.1.6-.2,1.1-.3,1.7-.3,1.4-.5,2.8-.9,4.1v.5c-.1.5-.2.9-.3,1.3-.1.7-.3,1.3-.5,2-.1.6-.3,1.1-.4,1.7v.2c-.2.7-.4,1.4-.5,2.1-.1.4-.2.7-.3,1.1v.4c0,.2,0,.3-.1.5-.2.7-.4,1.3-.6,2h0c-.2,1-.5,1.9-.8,2.7-.1.5-.3.9-.4,1.3,0,.2-.2.5-.2.7-.1.5-.3,1-.5,1.5-.3,1-.6,1.9-1,2.9,0,.1,0,.3-.1.4-.3.8-.5,1.5-.8,2.3,0,.2-.1.4-.2.6-.2.4-.3.9-.5,1.3h0c-3.4.7-6.7,1.4-9.9,2.1-51.8,10.2-83.5,8.3-99-25.1-.5-1-.9-2-1.3-3-1-2.4-1.7-6.9-2-11h0c0-.8-.1-1.5-.1-2.2.2-6.9,1.3-13.8,3.3-20.4,0-.3.2-.6.3-.9.1-.5.3-1,.5-1.5s.3-1,.5-1.5h0c1.9-5,4.1-9.8,6.7-14.3.2-.3.3-.6.5-.8,4.4-7.7,9.8-14.8,15.8-21.5q1.8-2,0,0c1.7-1.9,3.4-3.7,5-5.5q.5-.5,0,0c.8-.9,2.5-2.6,2.5-2.6,7.7-8,13.8-13.7,17.8-19h0c2.6-3.5,4.2-6.9,2.8-10.1h0c-.3-1-.9-2-1.9-2.9-3.7-3.8-10.2-5.7-10.6-5.7-20.3-5.8-59.4,0-103.3,6.5-17.2,2.6-35.1,5.2-52.9,7.4-34.5,4.1-68.5,6.3-95.9,1.6-3.1-.5-6-1.1-8.9-1.8-2.2-.5-4.4-1.1-6.5-1.8.3-.8.7-1.7,1.1-2.5,40.2-91.8,147.3-133.6,239.1-93.3,16.9,7.4,32.6,17.4,46.6,29.6,4.1,3.6,8,7.4,11.8,11.3h0c26.3,27.5,43,62.4,48.2,99.6,1.1,7.8,1.7,15.7,1.8,23.7h-.9,0Z" style="isolation:isolate" fill="url(#linear-gradient-3)" stroke-width="0" opacity=".6"/><path d="M381.6,390.4c27.2-46.5,41-88.6,24.7-104.9s-39.4-10-73,5.2c-6.1,2.8-12.4,5.9-19,9.5h0c-1.7.9-3.5,1.9-5.2,2.9-14,8-27.6,16.8-40.7,26.3" style="isolation:isolate" fill="none" stroke="#ececec" stroke-dasharray="0 0 0 0 0 0 0 0 0 0 0 0" stroke-linecap="round" stroke-miterlimit="10" stroke-width="2" opacity=".2"/><path d="M200.1,310.4c-2.2,8.8-2.5,19.2-1,29.9-17.2,2.6-35.1,5.2-52.9,7.4-34.5,4.1-68.5,6.3-95.9,1.6-3.1-.5-6-1.1-8.9-1.8,17.3-27.3,43.3-47.3,69.4-59.3,41.2-19,82.6-18.1,89.6,5.3,1.4,4.8,1.5,10.4-.2,17h-.1Z" style="isolation:isolate" fill="url(#linear-gradient-4)" stroke-width="0" opacity=".6"/><path d="M383.2,419.1c-.6,36-11.9,70.8-33.8,101.8-6.5-.5-13.2-1.3-20.2-2.2-54.9-4.6-90.8-67.9-56.7-120.2.2-.3.4-.6.6-.9,6.8-3.1,13.2-7.2,18.8-12,18.1-14.9,38.5-21.2,55.4-18.6,20.7,3.2,36.5,19.2,35.9,52.2h0Z" style="isolation:isolate" fill="url(#linear-gradient-5)" stroke-width="0" opacity=".6"/><path d="M146.2,347.7c-34.5,4.1-68.5,6.3-95.9,1.6,41.1-46.3,109.2-49.5,95.9-1.6Z" style="isolation:isolate" fill="url(#linear-gradient-6)" stroke-width="0" opacity=".5"/><path d="M349.5,522.4c-2.9-.3-6.5-.4-20.8-2.8-38.5-6.3-60.3-32.2-66.9-62.2.1-.1,21.1-21.2,47.9-33.3,21.8-9.7,42.4-10.6,48.1,12.2,2.1,8.1,3.4,16.4,4,24.7,1.9,24.2-3.9,43.4-12.3,61.3h0Z" style="isolation:isolate" fill="url(#linear-gradient-7)" stroke-width="0" opacity=".5"/></g><g id="upper_planet" class="cls-83" data-name="upper planet"><path d="M1819.9,0c17,16.9,27.5,40.3,27.5,66.1,0,51.6-41.9,93.4-93.5,93.4s-93.5-41.8-93.5-93.4,10.5-49.2,27.5-66.1h132.1,0Z" style="isolation:isolate" fill="url(#linear-gradient-8)" stroke-width="0" opacity=".6"/><path d="M1847.4,66.1c0,51.6-46.9,72-82.7,34.6-56.5-59.1-104.3,17-104.3-34.6s10.5-49.2,27.4-66.1h132.1c17,16.9,27.4,40.3,27.4,66.1h0Z" style="isolation:isolate" fill="url(#linear-gradient-9)" stroke-width="0" opacity=".6"/><path d="M1847.4,66.2c0,51.6-20.8-8.1-61.8-39.8-55.5-43-95,68.8-111.1,24.5-6.3-17.2,0-36,14-50.8h131.4c17,16.9,27.6,40.3,27.6,66.2h0Z" style="isolation:isolate" fill="url(#linear-gradient-10)" stroke-width="0" opacity=".6"/></g><path fill="#d9edff" stroke-width="0" d="M778.3,474c-111.4-21.1-187.5-.8-234.9,16.1-129.5,46-272.6,103.2-285.1-45.7-.2-2,.4-5.5.7-7.9-.1,4,.7,13.4,2.2,17.1,17.6,42.5,58.4,38.5,129.6,21.7,23.7-5.5,124.4-38.2,270.4-24.2h0c55,5.3,97.1,16.2,117,22.8h0Z"/></g><g id="left_page" data-name="left page"><path id="path553" d="M216.3,170.9l-27.9-7.8,27.9,3.8c-.3-16.7-2.1-39.9-9.9-53.1-40.1-22.4-133.4-25.5-158.8-6.5,8.4,31.6,38.5,74.9,65.5,103.6,40.8-29.2,73.7-33.1,102.7-24.5,0,0,.5-6.4.4-15.6h.1Z" class="cls-27"/><path id="path555" d="M66.2,120.7c-2.9-3.2-1.1-8.4,3.2-9.1,71.2-13.1,111.2,2.2,123.3,4.9,1.9.4,3.2,2,3.3,3.9h0c0,2.7-2.2,4.8-4.9,4.3-16.7-2.7-65.1-14.9-119.4-2.5-1.9.4-4,0-5.5-1.5h0Z" class="cls-28"/><path id="path557" d="M69,127.8c51.4-8.6,108.9,1,108.9,1,0,0-10.5,8.6-6.9,23.7-24.2-3.2-77.5,13.2-77.5,13.2,0,0-24.5-37.9-24.5-37.9Z" class="cls-28"/><path id="path559" d="M154.9,176.7c7.8-2.3,16-4.1,24.1-4.6-5.3-5.5-8.4-16.3-8.4-16.3-5.4.2-15.5,1.3-24.6,3.3l8.9,17.5h0Z" class="cls-28"/><path id="path561" d="M141,159.5c-19.4,3.6-42.9,10.8-42.9,10.8l18.1,22.9s17.3-9.4,35.8-15.6l-11-18.1h0Z" class="cls-28"/><g id="g565" class="cls-29"><path id="path563" d="M206.4,113.8c1.6,2.7,2.8,5.5,3.8,8.5,1,2.9,1.8,5.9,2.5,8.9,1.3,6,2.2,12.1,2.8,18.3.5,6.1.9,12.3.9,18.5s0,12.3-.4,18.5h0c-8.8-2.6-17.9-4-27-3.9h-3.4l-3.4.2c-2.3.2-4.6.5-6.8.7-2.3.4-4.5.8-6.7,1.2-2.2.5-4.4,1-6.7,1.6-8.8,2.5-17.3,5.9-25.4,10.2-8.1,4.3-15.8,9.1-23.3,14.4h0c7.4-5.5,15.1-10.5,23.1-14.9,8.1-4.4,16.6-7.9,25.4-10.5,2.2-.6,4.4-1.1,6.7-1.7,2.3-.4,4.6-.8,6.8-1.3,2.3-.2,4.6-.6,6.9-.8l3.5-.2h3.4c9.2,0,18.4,1.4,27.2,4.1l-.9.6c.4-6.1.5-12.3.4-18.5s-.3-12.3-.7-18.4c-.2-3.1-.6-6.1-1-9.2s-1-6.1-1.5-9.1c-.6-3-1.4-6-2.3-8.9-1-2.8-2.1-5.6-3.6-8.3,0,0-.3,0-.3,0Z" class="cls-32"/></g><path id="path567" d="M191.2,163.5s29,3.3,42.6,6.4c13.6,3.1,12.7-18.1-.4-18.3-1.2-16.4-25.7-29.1-37.4-15.1-17.5-8.9-29.7,23.2-4.8,27h0Z" class="cls-26"/><g id="g571" class="cls-29"><path id="path569" d="M191.2,163.5l9.2.8c3.1.4,6.2.6,9.2,1,6.1.7,12.2,1.7,18.4,2.8,1.5.3,3,.6,4.6.9,1.6.3,2.9.7,4.4.6,1.4,0,2.8-.6,3.8-1.5.4-.5.9-1,1.3-1.7.2-.3.3-.7.5-1,0-.3.3-.7.3-1,.6-2.8,0-6-1.7-8.4-.9-1.2-2-2.3-3.3-3-1.3-.8-2.9-1.1-4.4-1.2h0c1.6,0,3.1.3,4.5,1s2.6,1.7,3.5,3c1.9,2.5,2.6,5.8,2,8.8s-1,3-2.2,4-2.7,1.7-4.2,1.8-3.1-.2-4.6-.6c-1.5-.3-3-.6-4.5-.9-6.1-1.1-12.2-2-18.3-2.9-6.4-.9-12.4-1.6-18.6-2.5h.1Z" class="cls-32"/></g></g><g id="right_page" data-name="right page"><path id="path575" d="M1544.1,144.2c33.5,2,84.2,14.2,109.7,31.8-10.6,29.6-44.3,61.1-79.1,81.2l-11.6-11.9,6.4,14.7c-15.2,8.5-28.5,13.8-42.1,16.8-23.5-7.7-50.8-47-50.8-47,28.5-12.7,59.7-41.5,67.5-85.6h0Z" class="cls-27"/><path id="path577" d="M1632.3,177.2c-17.5-6.4-55.6-17.7-72.6-21.2-2.5-.5-5,1-5.8,3.4h0c-.9,2.8.7,5.7,3.5,6.5,14.7,3.9,55.9,15,70.3,22.1,2.6,1.3,5.8.5,7.5-2,0-.1,0-.2.2-.3,1.8-3,.4-7.2-3.1-8.5Z" class="cls-28"/><path id="path579" d="M1625.6,193.9c-12-5.3-69-24.3-73.3-24.7-2,5.3-14,26-16,27.3,5.3,3.3,33,16.3,35.7,19l2.2-2.7c7-8.8,18.2-13.2,29.4-11.6,6.7.9,12.8,2,13.4,2.7,3.6-3.6,8.6-10,8.6-10h0Z" class="cls-28"/><path id="path581" d="M1535.2,199.3c-3,4.3-27.8,26.7-40.2,33.7,4.7,8.3,29,28.7,31.3,30.3,13.3-2.9,29-12,29-12l-6.7-7,19-25.2-32.4-19.8h0Z" class="cls-28"/><g id="g585" class="cls-29"><path id="path583" d="M1653.8,176.1c-2.5,6.5-5.8,12.6-9.6,18.4-3.8,5.8-8.1,11.2-12.7,16.4-9.2,10.3-19.6,19.6-30.6,28s-22.7,15.9-34.9,22.3c-12.2,6.4-25.1,11.9-38.5,15h.4c-5.4-1.8-10.4-4.9-15.1-8.3-4.6-3.5-9-7.4-13.1-11.5s-8.1-8.4-11.9-12.8c-3.8-4.4-7.5-9-10.9-13.7h0c3.4,4.9,7,9.5,10.7,14s7.6,8.8,11.8,13c4.1,4.1,8.4,8.1,13.1,11.6s9.7,6.7,15.2,8.6h0c13.6-3.1,26.5-8.5,38.8-15s24-14,35-22.5,21.3-17.9,30.5-28.3c4.6-5.2,8.8-10.7,12.6-16.6,3.7-5.9,7-12.1,9.3-18.6h-.1Z" class="cls-32"/></g><g id="g595"><path d="M1616.5,239.6c-.3,0-.6-.1-.8-.4-.3-.4-.3-1.1,0-1.4,5.7-4.8,9.1-10.8,8.8-15.7-.2-3-1.7-5.5-4.6-7.4-7.1-4.6-21.2,2-27.3,8.6-.4.4-1,.4-1.4,0s-.4-1,0-1.4c6.5-7.1,21.7-14.3,29.9-9,3.4,2.2,5.3,5.3,5.5,9,.3,5.5-3.3,12.1-9.5,17.3-.2.2-.4.2-.6.2h0v.2h0Z" class="cls-71"/><path id="path589" d="M1585,216.5c1-1.1,2.6-1.4,3.9-.6,1.7,1,4.3,2.6,7.4,4.6l-3.8,3.4,7-1.3c8.7,5.8,19.9,13.4,26.8,17.9,1.6,1.1,1.9,3.3.6,4.7-15.8,17.2-37.4,21.8-40.3,22.1-1.5.2-20.5-18.4-23.4-21.8,4.6-6.5,10.6-16.5,21.8-29h0Z" class="cls-71"/><g id="g593" class="cls-29"><path id="path591" d="M1564.5,247c4.5,4.6,9,9,13.7,13.4,2.3,2.2,4.7,4.4,7.2,6.3.3.2.6.5,1.1.6.4,0,.8-.1,1.2-.2.8-.1,1.6-.3,2.3-.5,1.5-.4,3.1-.8,4.6-1.3,3-1,6-2.1,8.9-3.5,1.5-.6,2.9-1.4,4.3-2.1,1.4-.8,2.8-1.5,4.1-2.4,5.4-3.4,10.5-7.4,14.8-12.1h0c-1.2,1-2.3,2.1-3.5,3.1l-1.8,1.5c-.6.5-1.2,1-1.9,1.5-1.3.9-2.5,1.9-3.9,2.8-.7.4-1.3.9-2,1.3l-2,1.2c-.7.4-1.4.8-2.1,1.2l-2.1,1.1c-1.4.7-2.8,1.4-4.3,2-2.9,1.3-5.8,2.4-8.8,3.4s-3,.9-4.5,1.3c-.8.2-1.5.4-2.3.5-.2,0-.4.1-.6.1h-.5.2s0-.1-.2-.1c0-.1-.3-.2-.4-.3-2.5-1.8-4.8-4.1-7.2-6.1-2.4-2.1-4.7-4.3-7.1-6.4-2.2-2.1-4.6-4.2-7-6.3h-.2,0Z" class="cls-76"/></g></g><path d="M1653.8,176.1c-24.8-14.6-53-22.7-81.2-27.8-9.3-1.7-19.2-2.8-28.5-3.7l.5-.4c-1.5,8.1-3.9,15.9-6.9,23.6-3,7.6-7,14.9-12,21.3,4.9-6.5,8.6-13.9,11.5-21.5s5.1-15.5,6.5-23.5v-.4h.5c11.8,1.1,24.1,2.6,35.7,4.9,25.8,5.3,51.6,13.3,74,27.4h0Z" class="cls-31"/><g opacity=".8"><path fill="#cef4fe" stroke-width="0" d="M1581.7,243.9c.7-1,2.2-1.7,3.8-2.1-1.3-.7-2.6-1.7-3.3-3-2.3-4,3.6-7,7-4.4.6.5,1.2,1,1.6,1.6.3-4.1,3.5-7.4,5.3-7,2.6.6,4.4,2.3,3.6,6-.2.7-.5,1.4-.8,2.1.9-.2,2-.2,3.1-.1,6.1.5,3.3,6.1-.4,7.2-.3,0-.7.2-1,.2.4.4.8.9,1.3,1.4,3.5,4.6-3.5,5.5-6.3,3.3-.2-.1-.3-.3-.4-.4-.2,1.1-.7,2.1-1.3,3.1-2.5,3.8-6.2,1.9-6.2-2.8v-1.2c-.6.3-1.2.5-1.7.6-3.4.5-6.3-1.4-4.2-4.4h0Z"/><path d="M1591.3,240.7c-.9.8-1.1,1.9-.4,2.5s2,.4,3-.4c.9-.8,1.1-1.9.4-2.5s-2-.4-3,.4Z" style="isolation:isolate" fill="#3aa4f2" stroke-width="0" opacity=".2"/></g></g><g><path d="M219.2,144.5c-.6,0-1.4,0-2.3.2.2-.3.4-.5.5-.8,1.3-3.1-3.4-6.6-6.6-6.1-3.2.6-9,8.8-6.3,16.2h.2s-.1,0-.2.3c0,0,11.9,5.3,17.4,1.3,5.6-3.9.7-10.9-2.8-11.1h.1Z" class="cls-27"/><path d="M204.7,154.1v.2-.2Z" class="cls-68"/><path d="M222.1,155.8c-.8-.7-3.8-1.1-7.1-1.3.2-2.6-2.8-7.8-6.3-9,.1-.3.2-.6.4-.9,1-2.5-.7-6.7-3.8-4.9-2.9,1.7-1.8,12.8-.9,14.1,0,.2.1.4.2.5l.4.4c2.1,2.3,10.2,4.5,14.4,4.5s5.2-1.5,2.7-3.5h0Z" style="isolation:isolate" fill="#d6f4ff" stroke-width="0"/><path d="M201.9,154.9c.1.7,4.2,1.4,5,1.2s-1.2-1.3-1.4-2.4c-.2-1.1-1.6-3.1-2-2.3-.5.8-1.8,2.2-1.6,3.4h0Z" class="cls-27"/></g><path d="M1253.5,484.6c-3.1,12.1-16,17.6-28.3,20.3-20.7-5.8-41.2-12.5-61.4-17.9-.5-2-.9-3.8-1.1-5.1-.2-1,.5-2,1.5-2.1,21.6,0,39.3-7.5,56.7-20.5.8-.6,1.9-.5,2.5.3,5.8,7.5,19.2,23.3,26.2,23.3s1,0,1.4-.3c.9-.4,2,0,2.4.9.2.4.2.8,0,1.2h.1Z" class="cls-27"/><g class="cls-83"><path fill="#d6f4ff" stroke-width="0" d="M200,133c13.4-5.6,26.8-.4,32,13.4.6,1.7,1.2,3.5,1.6,5.3-.6-1.7-1.3-3.4-2.1-5.1-5.8-13.2-18.1-17.7-31.5-13.6h0Z"/></g><g><path d="M1251.6,510.6c75.2,9,153.5,1.5,219.1-37.8,60.7-35.9,98.4-74.1,173.3-81.5,64-7.8,128.8,8.8,185.2,38.9l-.4.8c-22.8-11.2-46.6-20.5-71.2-27-60.7-15.9-128-13.7-185.3,13.1-34.7,16.3-64.1,40.5-97,60.4-44.1,27.5-95.7,40.9-147.4,41.6-25.7.4-51.4-2.1-76.4-7.6l.2-.9h0Z" class="cls-75"/><path d="M1536.6,429.5c28.2-20.2,43.7-27,67-39,37.7-20.9,110.9-45.4,105.9-99-2.8-26.6-27-45.6-53.5-43v-.8c36.1-5.3,63.2,28.2,54.3,63.6-11.8,38.3-62.6,61.7-99.5,79.2-11.6,5.4-28.8,14.1-40,20.1-11.5,6.1-22.7,12.6-33.8,19.5l-.5-.6h0Z" class="cls-75"/><path d="M1703.4,415.6c-.5,1.1-1.2,2.2-1.8,3.3-.4.7-2.5,2.9-2.6,3.5v-1.1c.2-4.6-1.8-9.3-5.4-12.2-2.6-2.1-5.8-3.3-9-4.5-.2.8-1,1.3-1.8,1.2s-1.5-.4-2.2-.8c-4.8-2.5-9.8-4.6-15-6.2-5.1-1.7-10.4-2.3-15.5-3.8,0-.2,0-.4.3-.6,2.4-2.2,19.2-1.4,21.6-1.5h2.2c8.2.3,17.5,3.1,24.1,8.1,2.9,2.2,5.5,5.2,5.9,9,.2,1.9-.2,3.8-1,5.5h.2Z" class="cls-75"/><path d="M1662,389.8c14.7-2,26.7.9,40.3-4l8.2-2.7c27.5-8.8,57.9-24.8,87.4-19.6v.6c-11.6-1.1-23.2.4-34.4,3.4-11.2,2.9-22,7.1-32.8,11.4-9.7,3.8-23,10.1-33.2,12-11.8,2.3-23.7,1.1-35.5-.5v-.6h0Z" class="cls-75"/><g><path fill="url(#linear-gradient-11)" stroke-width="0" d="M1772.5,351.1c.3,5.3-3.7,10.1-8.3,12.8-3.2,1.9-6.7,3-10.2,4.2-3.3,1.1-6.7,2.3-10.1,3.3,2.4-2,4.2-4.5,5.7-7.4,1.7-3.3,3-6.7,5.1-9.6,2-2.7,5-5,8.3-5.2h.8c.5,0,1.1.4.8.8.9-1.1,2.2-2.1,3.6-2.3h.9c1.2,0,2.3.7,2.9,1.7.3.5.4,1.2.4,1.8h0Z"/><path fill="#ffd26a" stroke-width="0" d="M1769.2,347.6c-.7.9-2.2,1.6-2.9,2.4-2,2.1-4,4.3-6,6.5-1.9,2.2-3.8,4.5-6.4,5.8,1.7-1.6,3-3.5,3.9-5.6.7-1.5,1.2-3.1,2.1-4.5.8-1.2,2-2.1,3.2-3h.8c.5,0,1.1.4.8.8.9-1.1,2.2-2.1,3.6-2.3h.9Z"/></g><g><path fill="url(#linear-gradient-12)" stroke-width="0" d="M1382.6,491.2c-.8,7.2-8,12.7-15.7,15.3-5.3,1.8-11,2.6-16.7,3.5-5.4.8-10.8,1.6-16.2,2.3,4.2-2.2,7.5-5.1,10.4-8.6,3.3-4,6.1-8.4,10.1-11.8,3.7-3.2,8.8-5.6,14-5.2.4,0,.8,0,1.2.1.7.1,1.6.7,1.1,1.2,1.7-1.3,3.8-2.3,6.1-2.3s.9,0,1.3.1c1.8.3,3.4,1.4,4,2.9.3.8.3,1.7.2,2.5h.2Z"/><path fill="#ffd370" stroke-width="0" d="M1378.4,485.8c-1.2,1-3.7,1.6-5,2.5-3.6,2.4-7.2,4.8-10.6,7.4-3.4,2.5-6.9,5.2-11.2,6.4,2.9-1.8,5.4-4,7.3-6.6,1.4-1.9,2.5-3.9,4.2-5.5,1.6-1.4,3.5-2.4,5.6-3.3.4,0,.8,0,1.2.1.7.1,1.6.7,1.1,1.2,1.7-1.3,3.8-2.3,6.1-2.3s.9,0,1.3.1h0Z"/></g><path d="M1724.4,270.5c-.4,1.4-.9,2.7-1.5,4-2.5,5.6-6.2,10.7-8.7,16.3-.8,1.6-1.4,3.4-1.9,5.1.5-1.7-.6-5.4-.8-7.2-.2-1.7-.4-3.4-.6-5.1-.9-7.5-1.2-14,2.2-21.1,1.6-3.3,3.8-6.6,6.5-9,1-.8,1.7-1.1,2.4-1,2.1.4,2.6,4.7,2.6,7.2s-.8,6.3-1.8,9.3c.2-.4.7-.8,1.1-1,.8.5.6,1.6.4,2.5h.1Z" class="cls-75"/><path d="M1566.2,393.1c-.4,1.6-3.8,4.2-4.8,5.8-3.8,6.2-3.4,13.5-7.4,19.3-.2.3-.4.6-.7.9-2.4,3.2-5.6,5.8-8.8,8.2-9,6.7-18.9,12.1-29.4,16,2.9-2.2,5.6-4.8,8-7.6,4.4-5,7.9-10.8,10.2-17,1-2.5,2.6-5.7,5.3-5.4,2-9.5,9.3-17.4,18.1-20.9,2.2-.9,7.3-3,9-1.6.5.4.7,1.1.4,2.1h0v.2h.1Z" class="cls-75"/><path d="M1499.6,467.8c0,.5,0,1-.2,1.5-.7,6.1-2.1,12.3-6.1,16.8-2.6,3-6.2,4.3-9.1,6.8,1.4,1,0,2.4-1,2.8-8.9,4.1-18.9,1-28.2.9-5.1,0-10.3.7-15.4.8-1.7,0-3.4,0-5.2-.2,1.6-.5,1.8-1.8,2.8-2.6,4-4.8,10.1-5,15.6-6.7,6.9-2.2,13.9-4.5,20.7-7.2,4.9-1.9,9.9-4.1,14.3-7,3.4-2.2,6.6-4.8,9.8-7.4.3-.2.6-.5,1-.5s.3.1.4.2c.4.4.4,1,.4,1.6h0l.2.2h0Z" class="cls-75"/><path d="M1322.5,514.6c4.2,1.7,8.1,3.9,12.2,5.6,8.5,3.4,18.5,4.3,26.8.3-6.2,8.5-18.7,9.4-28.8,6.5-10.1-2.9-19.1-8.8-29.3-11.4-5.6-1.4-11.2-1.5-16.9-1.7,3.3-3.5,12.4-3.2,16.9-3.2,6.5,0,13,1.4,19.1,3.8h0Z" class="cls-75"/><path d="M1418.7,485.5c-1.3,5.5-15.8,25-21.8,17.2-7.3-9.5,16.4-18.6,21.4-19.8.8.8.7,1.5.4,2.6h0Z" class="cls-75"/><path d="M1632.5,359.9c0-.1,0-.2-.2-.2-.9-.5-4.9,1.9-5.8,2.4-1,.5-11.1,6.4-10.6,7.1-.4-.6-1.4-.6-2-.2s-.9,1.1-1.2,1.8c-1.9,5.3-1.2,11.5-4.2,16.3,5.6-3.9,11.4-7.7,16.2-12.5,2.1-2.1,4.1-4.3,5.6-6.9.7-1.2,1.3-2.5,1.7-3.9.3-.8.8-3.1.4-3.9h0Z" class="cls-75"/><path d="M1754.1,399.6c3.7-.5,7.4-1.4,11.2-1.8,3.7-.4,7.7-.3,11.1,1.2-4.4,2.4-9.5,3-14.5,2.8-4.8-.2-10.1-.6-14.8-1.6,2.2-.7,4.8-.3,7.1-.6h0Z" class="cls-75"/><path d="M1798.9,426c1.8,2.9,4,5.7,7.1,7-4.3-3.9-2.4-11.5-6.3-15.8-1.2-1.4-9.4-5.2-8.5-1.9.4,1.6,3,3.3,4,4.6,1.4,1.9,2.4,4,3.7,6h0Z" class="cls-75"/><path d="M1691.7,356c-.2.2-.3.7-.4,1.4h0c-.2,2,0,5.6-.3,6.6-.4,2.4-.9,4.5-2.4,6.4-2.8,3.5-6.8,5.7-11.4,5.3,1.9,7.7-15.6,1.1-19.4.6-2.6-.6-5.2-.9-7.8-1.1-3.9-.3-7.9-.1-11.8.4,1.2-.2,3.2-2.2,4.3-2.8,1.7-1,3.5-1.7,5.3-2.4-.6,0-.7-.3-1-.4,4-2.2,9.4-3.1,13.8-4.3,3.7-1,7.4-1.9,11.2-2.7,1.2-.3,2.4-.5,3.6-.8,5.8-1.1,11.9-2.2,16.2-6.3h.1Z" class="cls-75"/><path d="M1565.8,391c-3.8,2.3-7.7,4.6-11,7.6-4.2,3.8-7.3,8.6-9.1,13.9-.5,1.5-1,3.2-2.3,4.1-.8.6-1.9.8-2.8,1.1-2.5.8-4.5,2.7-6.2,4.7-3.8,4.4-6.8,9.8-11.1,13.5,4.4-5,7.9-10.8,10.2-17,1-2.5,2.6-5.7,5.3-5.4,2-9.5,9.3-17.4,18.1-20.9,2.2-.9,7.3-3,9-1.6h0Z" class="cls-78"/><path d="M1691.3,357.4c-.2,2,0,5.6-.3,6.6-.4,2.4-.9,4.5-2.4,6.4-2.8,3.5-6.8,5.7-11.4,5.3,1.9,7.7-15.6,1.1-19.4.6-2.6-.6-5.2-.9-7.8-1.1,6.2-.5,12.6.3,18.9.3s2.2,0,3-.8c.8-.7.7-2.3-.3-2.5,4,.1,8.2.2,11.7-1.7,2.7-1.5,4.6-4.1,5.9-7,.5-1.1,1-4.4,2.1-6.1h0Z" class="cls-78"/><path d="M1699.4,420.2c0,.6-.2,1.1-.3,1.5v-.5c.2-4.6-1.8-9.3-5.4-12.2-2.6-2.1-5.8-3.3-9-4.5-.2.8-1,1.3-1.8,1.2s-1.5-.4-2.2-.8c-4.8-2.5-9.8-4.6-15-6.2-5.1-1.7-9-1.9-14.1-3.4,0-.2,8.1-.5,12.5.8,5.3,1.5,10.5,3.5,16,4.4-.4-.5-.8-1-1.2-1.4,5.6,1.8,11.3,4.1,15.4,8.2,3.3,3.3,5.6,8.1,5.1,12.9h0Z" class="cls-78"/><path d="M1724.4,270.5c-.4,1.4-.9,2.7-1.5,4-2.5,5.6-6.2,10.7-8.7,16.3-.2.1-.4.3-.6.4,2.2-6.7,4.4-13.3,6.6-20-.8,0-1.7-.1-2.6-.1,1.6,0,3.5-11.9,3.6-13.3,0-1.1.2-3.4.8-5.4,2.1.4,2.6,4.7,2.6,7.2s-.8,6.3-1.8,9.3c.2-.4.7-.8,1.1-1,.8.5.6,1.6.4,2.5h0Z" class="cls-78"/><path d="M1499.6,467.8c0,.5,0,1-.2,1.5-.7,6.1-2.1,12.3-6.1,16.8-2.6,3-6.2,4.3-9.1,6.8,1.4,1,0,2.4-1,2.8-8.9,4.1-18.9,1-28.2.9-5.1,0-10.3.7-15.4.8,1.6-.5,3.2-1,4.8-1.5,2.1-.6,4.2-1.3,6.4-1.5,4.2-.5,8.5.5,12.7,1.1s8.7.9,12.6-.9c.3-.1.7-.3.8-.7.4-.9-.7-1.6-1.6-2-.9-.3-2-1.1-1.6-2,.2-.4.7-.6,1.1-.7,6.1-2,12.4-4.5,16.9-9.2,3.5-3.7,5.4-8.2,6.9-13,0-.3.2-.6.4-.9.4.4.4,1,.4,1.6h.2,0Z" class="cls-78"/></g><g><path d="M295.2,469.4c15.9,19.5,43.6,15.4,65.4,10.7,59.7-13.3,98.1-28.7,205.8-33.1,94.9-4.3,188.3,7.1,281.8,49.2l-.4.8c-89.5-36.6-181-47.8-276.9-45-111.1,1.7-179.1,30.2-227.4,34.4-18.1,1.6-37.6-.7-49.1-16.4l.7-.6h0Z" class="cls-75"/><path d="M529.6,452.3c-48.3,9.4-105.6,13.8-137.5,32.4-14.8,8-28.2,17.5-31.9,35.2-1.7,8.6.6,18.6,7.9,24.1l-.5.7c-12.6-8.2-19.3-33,15.5-57.5,37.5-27.1,132.6-36.9,146.6-35.9v.9h0Z" class="cls-75"/><path d="M370.6,310c-10,13.4-19,28.1-23.4,44.3-8.1,29.9,1.8,58.7,31,71.8,29.8,14.4,80.6,16.1,110.9,16.4,43.1,0,110.4,0,152.4,4.1v.9c-17,.9-33.9,1.4-50.8,1.6-42,.7-85,.2-126.9-1.9-17-.9-34-2.1-50.9-4.9-11.6-1.9-23.4-5-34.2-9.9-43.6-19.6-46.4-65-23.6-102.3,4.4-7.3,9.4-14.2,14.7-20.8l.7.5h0v.2h0Z" class="cls-75"/><g><path fill="url(#linear-gradient-13)" stroke-width="0" d="M380.7,517.9c-.3-3.2-8-9.6-15.6-7.5v.2l-.2-.2s-6.1,11.4-2.6,17.2,10.7,1.5,11.2-2v-2.2c.3.2.5.4.7.5,2.9,1.5,6.8-2.8,6.5-6h0Z"/><path d="M365,510.6h-.2.2Z" class="cls-68"/><path d="M368.7,524.2c-1.7-3.3-2.6-7-2.6-10.8h0c0,1.8,1.6,4,3,5.2.4.4.8.7,1.2,1,.4.4.6.8.8,1.2" class="cls-2"/><path fill="url(#linear-gradient-14)" stroke-width="0" d="M379.1,512.2c-1.5-3-12.5-2.7-13.9-1.9-.2,0-.4.1-.5.2s-.3.2-.4.4c-2.5,1.9-5.2,9.8-5.5,13.9-.3,4.5,1.1,5.3,3.2,3,.7-.8,1.3-3.7,1.8-7,2.6.3,7.9-2.1,9.4-5.5.3.2.6.3.8.4,2.4,1.2,6.7-.2,5.1-3.4h0Z"/><path fill="#ffd471" stroke-width="0" d="M366.4,506.4c-.7,0-3.7,5.4-3.6,6.2,0,.8,1.4-1,2.5-1.2s3.2-1.3,2.4-1.8-.6-1.1-1.3-3.1h0Z"/><circle cx="368.9" cy="524.3" r="1" class="cls-39"/><circle cx="371.3" cy="520.7" r="1" class="cls-39"/></g><g><path fill="url(#linear-gradient-15)" stroke-width="0" d="M371.4,318.6c-3.4-.9-7.1,1.5-9.6,4.6-1.7,2.1-3,4.6-4.4,7-1.3,2.3-2.5,4.7-3.8,7,1.7-1.6,3.6-2.6,5.7-3.3,2.4-.8,4.9-1.4,7.1-2.7,2.1-1.2,4-3.1,4.7-5.5,0-.2.1-.4.1-.6,0-.3,0-.9-.4-.7.9-.5,1.7-1.4,2.1-2.4,0-.2.1-.4.2-.6.1-.9,0-1.8-.7-2.3-.3-.3-.7-.4-1.1-.5h0Z"/><path fill="#ffc746" stroke-width="0" d="M373.1,321.5c-.7.4-1.4,1.4-2,1.9-1.7,1.3-3.4,2.5-5.2,3.6-1.7,1.2-3.5,2.3-4.8,4.1,1.3-1,2.8-1.8,4.2-2.2,1.1-.3,2.2-.5,3.2-1,.9-.5,1.7-1.2,2.4-2,0-.2.1-.4.1-.6,0-.3,0-.9-.4-.7.9-.5,1.7-1.4,2.1-2.4,0-.2.1-.4.2-.6h.2,0Z"/></g><g><path fill="url(#linear-gradient-16)" stroke-width="0" d="M305.8,474.5c.9,4.1,4.8,6.9,8.8,8,2.8.8,5.6.9,8.5,1.1,2.7.1,5.5.4,8.2.5-2.2-1-4.1-2.6-5.8-4.4-1.9-2.1-3.6-4.5-5.8-6.3-2.1-1.6-4.8-2.8-7.3-2.2-.2,0-.4,0-.6.1-.3.1-.7.5-.5.8-.9-.7-2-1.1-3.2-1-.2,0-.4,0-.6.1-.9.3-1.6,1-1.8,1.9-.1.5,0,1,0,1.5h0Z"/><path fill="#ffd67a" stroke-width="0" d="M307.5,471.2c.7.5,1.9.8,2.7,1.2,2,1.2,3.9,2.4,5.8,3.7,1.9,1.3,3.8,2.6,6,3.1-1.6-.9-3-2-4.1-3.4-.8-1-1.5-2.1-2.5-3-.9-.7-1.9-1.2-3-1.6-.2,0-.4,0-.6.1-.3.1-.7.5-.5.8-.9-.7-2-1.1-3.2-1-.2,0-.4,0-.6.1h0Z"/></g><path d="M673.2,447.2c-6.3-3.3-11.4-9.8-11-16.9,6.7.2,12.6,4.3,17.5,8.8,4.1,3.7,8.7,9.8,19.3,14.1-4.4,3.2-21.1-3.5-25.8-6h0Z" class="cls-75"/><path d="M456.4,436.8c-6.8-6.5-11.7-16.8-22.2-14-7.9,11.1,33.1,26.6,40.6,20-5.3-.5-12.2,0-18.4-5.9h0Z" class="cls-75"/><path d="M433.1,467.8c-5.7.4-11.2,2.6-15.8,5.7-4.6,3.1-8.4,7.2-11.4,11.6-1.1,1.7-2.2,3.6-1.9,5.5,3.9-3,8.1-5.6,12.6-7.9v1.8c6.9-3.6,8.7-12.5,15.4-16.3" class="cls-75"/><path d="M364,481.4c-4,1.8-8.4.8-12.2-1.3-2.6-1.4-4.9-3.2-6.7-5.1-2-2-3.5-4.5-4-7.2,0-.4,0-.8.1-1.1,0-.1.2-.2.4-.2.3,0,.5.2.7.4,3.5,3,7.6,5.4,12,6.7-.3-.8-.5-1.9.2-2.3.4-.2.9,0,1.3.1,1.9.7,8.8,4.5,9.6,7.4h0c.3,1,0,1.9-1.5,2.5h.1Z" class="cls-75"/><path d="M359,419.4c-1-.4-2-1.1-3-1.9-.7-.5-1.4-1.1-2.1-1.4-1.8-1-3.6-1.8-5.5-2.5-2.5-.9-5.2-1.6-7.6-2.8-2.5-1.3-4.6-3.2-6.2-5.4-.2-.3-.4-.6-.3-.9,0-.2.3-.3.5-.2-1.3-1.6-2.3-3.4-3-5.3-1.2-3.3-1.6-6.9-1-10.3.1-.7.3-1.4.5-2.1,1.3,3.2,2.7,6.5,5,9,2.8,3.1,6.7,5,10.3,7.1,5.9,3.6,8,8.8,11.9,14.2,1,1.3,3.2,3.6.5,2.6h0Z" class="cls-75"/><path d="M659,453.5c-.3.1-.6.2-.9.4-9.8,4.2-16.9,12.4-26.5,16.9-2.7,1.3-5.8,2.2-8.8,1.4.6-2.4,1.9-4.5,3.7-6.1-8.4,6.7-19.1,10.4-29.9,10.3-3.3,0-6.9-.6-9.4-2.6-.7-.6-1.3-1.3-1.8-2.1l.6-.2h-.2q0-.1.2,0s10.4-1.8,19-6.4c6.3-3.4,11.7-8.4,18.3-11.4,6-2.7,12.8-2.7,19.2-2.1,5.3.5,11.4.5,16.5,2.1h0v-.2h0Z" class="cls-75"/><g><path d="M598,445c-11,.4-22.1-1.9-26.9-13-.3-.8-.7-1.6-.6-2.5,0-.6.3-1.2.8-1.6.2-.2.4-.3.6-.3.3,2.9,2.8,5,5.4,6.1,2.7,1.1,5.6,1.3,8.3,2.1,4.1,1.2,7.9,3.7,10.6,7,.6.7,1.2,1.5,1.7,2.3h.1Z" class="cls-75"/><path d="M596.4,442.9c-4-2.3-9.1-1.4-13.6-2.6-4.6-1.1-8.5-4.6-10.4-8.9-.2-.5-.9-2.2-1.2-3.6.2-.2.4-.3.6-.3.3,2.9,2.8,5,5.4,6.1,2.7,1.1,5.6,1.3,8.3,2.1,4.1,1.2,7.9,3.7,10.6,7v.3h.3Z" class="cls-78"/></g><g><path fill="url(#linear-gradient-17)" stroke-width="0" d="M384.2,379.7c-1.1-.3-2.2-.6-3.2-.2-1,.3-1.7,1.2-2.5,1.9-2.3,2.4-5.1,4.2-7.2,6.8-2.1,2.5-3.4,6.2-2,9.2,1.7,3.7,5.8,3.9,8.8,5.8s5.2,6.2,8.1,7.9c4.5,2.6,7.3,1.5,10.8-2.4,3.4-3.8,5.5-10.5,5.1-15.5-.7-10.5-9.3-11.1-17.9-13.5h0Z"/><path fill="url(#linear-gradient-18)" stroke-width="0" d="M381.8,402.3c-4.8-1.5-10.4-1.2-14.3,1.9-1.2,1-2.3,2.3-3.7,3-.9.4-2,.6-2.9,1-3.7,1.6-5.2,6.4-4.2,10.4.9,4,3.6,7.2,6.3,10.3,1.1,1.3,2.3,2.7,3.9,3.3,1.1.4,2.3.5,3.4.4,4.4-.5,8.1-3.8,11-7.2,2-2.4,14.5-8.6,14.7-11.1.3-4.5-10.5-10.8-14.1-11.9h0Z"/><path fill="url(#linear-gradient-19)" stroke-width="0" d="M393.7,411.8c1.8-9.6,8.7-21.2,17.7-25.1,3.2-1.4,7.6-2,9.7.8,1.5,2,1.1,4.7,2.3,6.9,1.2,2.3,4,3.6,4.9,6.1.5,1.5.2,3.1-.1,4.6-.9,4-2.1,7.8-3.6,11.6-2.6-5.2-7.6-9-13.3-10.1-5.7-1.1-11.8.6-16.1,4.5"/><circle cx="387.9" cy="404.4" r="1.2" class="cls-39"/><circle cx="392" cy="407.1" r="1.2" class="cls-39"/><circle cx="393.7" cy="403.9" r="1.2" class="cls-39"/><path d="M387.7,404.4c2.6,1.5,4.8,3.7,6.3,6.3-.1.1.2,1.4.3,1.6.1-1.2-.3-2.4-.5-3.6-.2-1.7-.2-3.4-.1-5.1" class="cls-7"/><path fill="url(#linear-gradient-20)" stroke-width="0" d="M400.9,423.1c2.3,4.2,2.5,9.8,6.3,12.8,1.4,1,3.1,1.6,4.8,1.8,7.5.8,14.6-5.9,15.1-13.4s-4.9-14.7-12-17.2c-4.8-1.7-15.2-1.9-19,2.6-4.5,5.4,2,8.2,4.9,13.5h0Z"/><path fill="url(#linear-gradient-21)" stroke-width="0" d="M377.3,423.6c-2.8,3.5-5,8-3.8,12.3.7,2.4,2.3,4.3,3.9,6.1,2,2.4,4.2,4.8,7.1,5.8,3.7,1.2,7.6-.3,11.2-1.7,3.3-1.3,6.7-2.8,8.8-5.6,3.2-4.4,1.9-10.7-1-15.4-2.2-3.6-6.2-12.5-10.2-12.9-4.5-.5-13.5,8.3-15.9,11.4h-.1Z"/></g><g><path fill="url(#linear-gradient-22)" stroke-width="0" d="M665.7,432.1c-.8,2.3-1,4.5-1.1,6.8.2,1.4.4,2.9,0,4.2v-.4c.5,1.6-2.5,3.1-3.5,3.4-2.2.6-4.8.5-7.1.7s-4.7.4-6.8-.4c-.2,0-.3-.1-.4-.3,0-.3,0-.6.4-.8,1.1-.8,2.3-1,3.6-1.4-1.1-1.1-2.4-1.6-3.2-3.1-.2-.4-.4-.8-.3-1.2,0-.4.4-.8.8-1,2.4-1.7,6-1.3,8,.8-1.2-1.5-2-3.3-2.3-5.2,0-.8-.2-1.7,0-2.5s1-1.5,1.9-1.5,1,.1,1.4.4c1.6.7,3,2,3.9,3.5v-.2c.3-1.1.8-2.3,1.5-3.3.3-.5.7-.9,1.2-1.2h0c.5-.3,1.2-.3,1.7.1.7.6.4,1.8,0,2.7h.3Z"/><g><path d="M656.2,442.5c3.4,1.2,7,1.6,10.1,3.4-3.5-2.5-6.3-5.9-9-9.3" class="cls-4"/><path d="M660.3,436.6c1.2,3,3,5.8,5.2,8.2" class="cls-4"/><circle cx="656.1" cy="442.4" r=".7" class="cls-39"/><circle cx="657.2" cy="436.5" r=".7" class="cls-39"/><circle cx="660.3" cy="436.5" r=".7" class="cls-39"/><path fill="url(#linear-gradient-23)" stroke-width="0" d="M655.2,445.4c.6,0,1.2,0,1.8-.3,1.5-.8,1.2-3,1.6-4.6.6-2.2,3.2-3.6,5.3-2.9-.2-2.8-.2-6,1.9-7.9.7.7.5,1.9.3,2.8-.9,5.6,5.4,10.2,8.4,15,.2.4.3.8.4,1.3.4,2.2-7.7.5-9.2.1-5-1.2-10.3,0-15.5-.3-1.1,0-5.5-1-3.3-2.9.7-.6,2.9-.2,3.8-.2h4.6,0Z"/></g></g><g><path fill="url(#linear-gradient-24)" stroke-width="0" d="M326.4,364.3c2.6-.3,5-.2,7.4.1,1.5.5,3,1,4.5.8l-.3-.2c1.6,1,3.7-1.9,4.2-2.9,1.1-2.2,1.5-5,2.1-7.4.7-2.4,1.4-4.9.9-7.3,0-.2,0-.4-.2-.5-.3-.2-.6,0-.9.2-1.1,1-1.6,2.3-2.2,3.5-.9-1.4-1.3-2.8-2.6-4-.4-.3-.8-.6-1.3-.6s-.9.3-1.3.6c-2.3,2.2-2.6,6.1-.7,8.6-1.4-1.6-3.1-2.8-5.1-3.5-.9-.3-1.8-.5-2.7-.4-.9.2-1.8.8-2,1.7-.1.5,0,1.1,0,1.6.5,1.8,1.5,3.5,2.9,4.8h-.2c-1.3.1-2.5.4-3.7,1-.6.2-1.1.5-1.5,1h0c-.4.5-.5,1.3-.2,1.8.5.9,1.8.8,2.8.7h0v.4h.1Z"/><g><path d="M339.4,356.4c.6,3.8.3,7.7,1.6,11.3-2-4.2-5-7.8-8-11.4" class="cls-4"/><path d="M332.3,359.5c2.9,1.9,5.5,4.3,7.6,7" class="cls-4"/><circle cx="339.3" cy="356.2" r=".8" class="cls-39"/><circle cx="332.8" cy="356.2" r=".8" class="cls-39"/><circle cx="332.2" cy="359.5" r=".8" class="cls-39"/><path fill="url(#linear-gradient-25)" stroke-width="0" d="M342.6,355.8c-.1.6-.3,1.3-.7,1.8-1.2,1.4-3.4.6-5.2.8-2.4.2-4.4,2.6-4.1,5.1-2.9-.7-6.3-1.4-8.7.5.6.9,1.9.9,2.9.9,6.1.2,9.7,7.7,14.1,11.9.4.3.8.5,1.3.6,2.2.8,2-8.1,1.9-9.7-.3-5.6,2.1-10.9,2.7-16.4.1-1.2,0-6-2.4-4.1-.8.6-.8,3-1,4-.3,1.6-.6,3.2-.9,4.8h0v-.2h.1Z"/></g></g><path d="M658.1,453.9c-9.8,4.2-16.9,12.4-26.5,16.9-2.7,1.3-5.8,2.2-8.8,1.4.6-2.4,1.9-4.5,3.7-6.1-8.4,6.7-19.1,10.4-29.9,10.3-3.3,0-6.9-.6-9.4-2.6,1.2.2,2.4.4,3,.4,10.3.7,20.2-3.2,28.7-8.9,3.7-2.5,7.3-5.3,11.7-5.9-1,1.2.4,3.2,2,3.3,1.6,0,3-1,4.3-2,6.1-4.5,13.7-7.1,21.1-6.7h.1Z" class="cls-78"/><path d="M356,417.5c-.7-.5-1.4-1.1-2.1-1.4-1.8-1-3.6-1.8-5.5-2.5-2.5-.9-5.2-1.6-7.6-2.8-2.5-1.3-4.6-3.2-6.2-5.4-.2-.3-.4-.6-.3-.9,0-.2.3-.3.5-.2-1.3-1.6-2.3-3.4-3-5.3-1.2-3.3-1.6-6.9-1-10.3,1.2,5.9,4.4,11.4,9.1,15.3-.9.6,0,2,.8,2.7,2.3,1.7,5,2.6,7.4,4,3.1,1.7,5.8,4.1,7.9,7v-.2h0Z" class="cls-35"/><path d="M356.4,476.2c-.1.7-.8,1.1-1.5,1.2-.7,0-1.4-.2-2-.5-4.8-2.1-8.7-5.6-11.6-10,0,0,0-.1-.1-.2,0-.1.2-.2.4-.2.3,0,.5.2.7.4,3.5,3,7.6,5.4,12,6.7-.3-.8-.5-1.9.2-2.3.4-.2.9,0,1.3.1,1.9.7,8.8,4.5,9.6,7.4-3.3-1.1-6.4-3-8.9-5.4-.9.5,0,1.8-.1,2.7h0Z" class="cls-35"/></g><g id="g647"><path id="path621" d="M493.5,227l-19.5,9.7,16.9-14.6c-14.4-25.9-34.3-49.7-54.4-59.8-17.7,20.1-39.9,56.4-51.4,78.2,40,18.3,72.4,54.5,80.8,80.3,0,0,37.4-19.1,46.2-38.5-1.8-16.4-8.6-36.2-18.5-55.3h-.1Z" class="cls-27"/><path id="path623" d="M437,176.6c-7.9,10.8-28.2,43.6-34.6,54.3-1,1.8-.5,4.1,1.3,5.1.2.1.5.4.8.5,1.8,1.1,4.1.5,5.1-1.3,6.3-10.5,26.1-43.4,33.6-54.2,1.3-1.9.7-4.3-1.3-5.5h-.1c-1.8-.9-3.8-.5-4.9,1h.1Z" class="cls-28"/><path id="path625" d="M447.2,182.9s-32.2,53.2-34.6,57.8c7.5,4.9,28.3,21.5,32.8,27,4-4.5,20-22.4,20-22.4l-25.6-29.3,16.9-24.4-9.5-8.7h0Z" class="cls-28"/><path id="path627" d="M448.1,271.7c3.1-3.5,32-29.1,39.6-34.9,7.3,13.7,13.4,37.6,13.7,43.3-6.8,8.1-32,24.4-32.4,25-5-15.2-21-33.4-21-33.4h0Z" class="cls-28"/><g id="g631" class="cls-29"><path id="path629" d="M465.7,320.8c-3.1-9.2-8.1-17.7-13.9-25.5s-12.2-15.1-19.2-21.8c-7-6.8-14.5-12.9-22.5-18.4s-16.4-10.5-25.3-14.6h0c0-.1,6.6,2.9,6.6,2.9,2.2,1.1,4.3,2.2,6.5,3.3,1,.6,2.1,1.2,3.1,1.8l3.1,1.9c2.1,1.2,4.2,2.6,6.2,4,8.1,5.5,15.7,11.6,22.8,18.3,7,6.9,13.5,14.1,19.2,22.1,2.8,4.1,5.4,8.1,7.7,12.5l1.6,3.3,1.4,3.4.7,1.6c.2.6.4,1.2.6,1.8l1.2,3.6h0l.2-.2h0Z" class="cls-32"/></g><path id="path633" d="M480.6,173.1l-28.6,34.3c-2.3,2.2-2.6,5.9-.5,8.4l15.7,20.2c1.8,2,4.7,2.2,6.8.6l32.5-28.9c2.1-1.6,2.4-4.7.9-6.8l-19.4-27.2c-1.8-2.4-5.2-2.7-7.3-.7h-.1Z" class="cls-26"/><g id="g637" class="cls-29"><path id="path635" d="M451.5,215.8c1.4,1.6,2.8,3.3,4.2,4.9s2.8,3.3,4.1,4.9l4.1,5c1.4,1.6,2.7,3.4,4.1,5h0c1.2,1.3,3.1,1.6,4.7.8.7-.4,1.5-1.2,2.2-1.9l2.3-2.1,9.5-8.4c3.1-2.8,6.5-5.5,9.7-8.3,1.6-1.4,3.3-2.7,4.9-4.1,1.6-1.4,3.3-2.7,5-4h.1c0,.1-19,17.1-19,17.1l-9.5,8.5-2.3,2.1c-.8.7-1.5,1.5-2.6,2-2,1.1-4.5.5-5.9-1.2h0l-15.5-20.5h0v.2h-.1Z" class="cls-31"/></g><path d="M487.5,204.4c-.2-2.5-.3-4.8-.6-7.2-.2-2.5-.5-4.8-.8-7.2-.3-1.9-.6-3.8-1-5.6v-1.5h-.2v.5-.4h-.2v14.2c-.1,2.4.1,4.8.1,7.2s.1,2.4.1,3.6v.8c0,.2-.1.4-.1.6-.1.3-.3.7-.5,1-.5.7-1.2,1.1-2,1.1h-3.5c-2.4,0-4.8-.1-7.2,0l-7.2.2c-2.4.1-4.8.2-7.2.4l-.3.3c2.4.4,4.8.6,7.2,1,2.4.3,4.8.5,7.2.7,2.4.2,4.8.3,7.2.5.5.1,1.1.1,1.7.1h2c1.7,0,3.5-.8,4.5-2.2s.8-1.5,1-2.4c.1-.5.1-.9.1-1.3v-.9c0-1.2-.1-2.4-.2-3.6h-.1Z" style="isolation:isolate" fill="#eee" stroke-width="0" opacity=".9"/></g><g><path d="M1814.6,256.8c1.8-2.2,4.9-3.9,7.5-2.8,2.6,1.1,3.5,4.2,4,6.9s1,5.8,3.2,7.5c1.3,1,3.1,1.3,4.3,2.4,1.8,1.7,1.8,4.7.7,6.9-1.1,2.2-2.9,4-4.5,5.9s-2.9,4.3-2.7,6.8c2.3-.4,4.3-2,6.4-3,2.7-1.4,5.8-2.1,8.8-1.5s5.7,2.8,6.4,5.8c.8,3.1-.7,6.3-2.3,9.1-2.1,3.6-4.3,7.2-6.8,10.5-.8,1-1.6,2.1-2.9,2.3-1.1.2-2.1-.3-3.1-.8-3.2-1.6-6.3-3.4-9.3-5.3-9.1-5.7-11.9-13.9-13.3-24.2-1.2-8.3-2.2-19.6,3.5-26.5h.1Z" class="cls-67"/><path fill="#bcf1fe" stroke-width="0" d="M1800.3,265.8c.3-1.5.9-3.3,2.3-3.7,1.2-.3,2.4.4,3.2,1.3,3.2,3.2,3.8,8.4,7.2,11.5,2.6,2.4,6.8,3.4,8.3,6.6,2.1,4.7-3.1,9.7-3,14.9,5-7,14-10.9,22.5-9.8,1.5.2,3.1.6,4.2,1.7,1.5,1.5,1.6,4,1.3,6.2-.8,5.8-3.7,11-6.4,16.1-.4.8-.8,1.5-1.4,2.1-1.4,1.3-3.7,1.5-5.5.9s-3.5-1.8-5.2-2.8c-4.8-3-9.7-4.1-15-5.7-4.3-1.3-4.9-4.6-6.6-8.4-4.2-9.7-7.8-20.3-6-31h0Z"/><path d="M1805.7,282c-1.3-4.3-2.2-9.1-.5-13.2,2.2,1.8,3.2,4.8,3.8,7.6,1.3,5.5,2.3,11.2,2.8,16.9,0-3.8,1.5-7.6,4-10.5.3-.4.8-.8,1.3-.6.3.1.4.4.5.6,1,2.4,0,5-1.3,7.3-1.4,2.6-3,5.4-4.8,7.7-1.5-5.3-4.2-10.4-5.8-15.8h0Z" class="cls-67"/><path d="M1833.2,290c1.7-.8,3.7-1.3,5.6-1.1s3.8,1.1,4.8,2.8c1.7,2.8.4,6.4-1.2,9.3-.5,1-1.2,2-2.1,2.5-1,.6-2.4.5-3-.4-1-1.5.5-3.8-.7-5.1-3.2-3.5-10.4,2.9-13.9.5,2-3.4,7-6.9,10.6-8.5h-.1Z" class="cls-67"/><path d="M1804.9,301.7c1.2,1.8,3.1,3,4.9,4.1,2.1,1.3,4.1,2.5,6.2,3.8,1.6,1,3.2,2,4.9,2.8,2.4,1.2,5.1,2,7.7,2.3.5,0,1,.1,1.5,0s.8-.7.6-1.2c-5.8-2.3-11.5-5.1-16.8-8.4-2.1-1.3-4.3-2.5-6.2-3.9-1-.7-4.9-2.8-2.8.5h0Z" class="cls-73"/><path d="M1793.7,293.7v.4c0-.5-.4-1-.9-1.3-.3-.2-.7-.3-1,0-1.7,1.3,2.8,4.4,3.7,4.8,2,1,4.2,1.4,6.3,2,2,.6,2.2-.2,3.6,1.5-3.2-3.7-8.9-5-10.9-9.4,0-.2-.2-.5,0-.8,0-.4.6-.6,1.1-.5s.8.4,1.1.7c.3.3.6.8.2,1" class="cls-5"/></g><g><path d="M300.1,179.8c5.8,3.7,12.3,6.2,18.7,8.6.6.2,1.4.4,1.7-.1.4-.6-.2-1.3-.8-1.8-3.1-2.3-6.5-4.1-10.1-5.3-1.4-.5-2.8-.8-4.1-1.4-2.2-.9-4.6-3.5-7-3.5-3.5,0,.2,2.6,1.7,3.5h-.1Z" class="cls-73"/><path d="M332.8,169.3c1.3.6,1.7,2.2,1.6,3.6-.1,1.4-.6,2.7-.6,4.1.1,3.8,4.2,6.6,4.6,10.4.1,1.2-.2,2.5-1.1,3.2-1.3,1-3.2.6-4.8,0-9.5-3.3-18.7-7.5-27.4-12.5,1.1.6,6.9-3.1,8-3.7,1.9-1.1,3.7-2.4,5.7-3.3,3.3-1.4,10.6-3.3,13.9-1.9h0Z" class="cls-74"/><path d="M301.4,155.5c.3-3.1,1.3-6.1,2.8-8.9,1-1.8,2.6-3.6,4.7-3.6s3.5,1.7,4.2,3.5,1,3.7,1.7,5.5c.7,1.7,1.9,3.3,3.5,4.4.7.5,1.4.9,2,1.6.8,1.1.9,2.6.5,3.9s-1.2,2.4-2,3.6c-.5.7-4.2,6.2-6.1,8.1-1,1-2,1.1-3.4.9-2.1-.3-3.7-1.9-4.8-3.6-3-4.5-3.6-9.9-3-15.2h0v-.2h-.1Z" class="cls-74"/><path d="M286.9,153.5c-.6-1.6-1.1-3.3-1-5s1.2-3.5,2.8-3.9c1.8-.5,3.6.5,5,1.8,2.7,2.6,4.2,6.4,7,8.9s6.7,3.8,8.8,6.9c1,1.6-.7,8.7.6,10,4.2-2.6,8.1-3.5,11.2-3.9s6.9-.4,8.6,2.3c1.9,2.9-.1,7,1.2,10.2.5,1.2,1.5,2.2,2.1,3.4s.5,2.9-.6,3.6c-.9.5-2,.2-3,0-5-1.6-10-3.3-15-4.9-4-1.3-10.3-2.1-13.7-4.5-3.2-2.3-5.8-7.9-7.7-11.3-2.4-4.3-4.5-8.8-6.2-13.4h0v-.2h0Z" class="cls-33"/><path d="M297.8,176.6c-2.5-3.4-5.4-6.9-9.2-8.9-.6-.3-1.3-.6-2-.4s-1,1.2-.5,1.6c.1,0,.3.1.3,0s-.2-.2-.2,0" class="cls-5"/><path d="M298.1,176.9c-3.1-2.6-6.5-5-10.5-6-.6-.1-1.3-.2-1.9.1s-.7,1.3,0,1.6h.3s-.2-.1-.2,0" class="cls-3"/><path d="M329.6,187.6c-5-1.6-10-3.3-15-4.9-4-1.3-10.3-2.1-13.7-4.5" class="cls-33"/><path d="M286.9,153.5c-.6-1.6-1.1-3.3-1-5s1.2-3.5,2.8-3.9c1.8-.5,3.6.5,5,1.8,2.7,2.6,4.2,6.4,7,8.9s6.7,3.8,8.8,6.9c1,1.6-.7,8.7.6,10,4.2-2.6,8.1-3.5,11.2-3.9s6.9-.4,8.6,2.3c1.9,2.9-.1,7,1.2,10.2.5,1.2,1.5,2.2,2.1,3.4s.5,2.9-.6,3.6c-.9.5-2,.2-3,0-5-1.6-10-3.3-15-4.9-4-1.3-10.3-2.1-13.7-4.5-3.2-2.3-5.8-7.9-7.7-11.3-2.4-4.3-4.5-8.8-6.2-13.4h0v-.2h0Z" style="isolation:isolate" fill="url(#linear-gradient-26)" stroke-width="0" opacity=".3"/></g><g><path d="M1574.6,356c-.2,0-.4.1-.5,0-.4-.2-.3-.8,0-1.2,2.4-3.6,7-6.3,10.1-9.3,2.7-1.8,5-7.6,7.6-8.5,3.6-.9-5.1,9.3-6.9,11.6-2.6,3.4-6.2,6-10.2,7.4h0Z" class="cls-73"/><path fill="#e8742c" stroke-width="0" d="M1586.1,319.3c-.4-4.9-1.1-10-3.3-14.4-.6-1.1-1.4-2.4-2.7-2.6-1.6-.4-3.1,1-3.8,2.5s-1,3.2-1.9,4.5c-1.7,2.5-5,3.3-6.6,5.8-1.7,2.5-1.1,5.9.3,8.5s3.5,4.8,5,7.4c-2.3.9-4.8-.8-7.2-.6-3.5.2-5.6,4-6.4,7.4s-1.1,7.2-3.4,9.8c-1.4,1.6-3.8,3.1-3.2,5.2.6,2.3,4,2.1,6.3,1.3,8.4-3,18.6-7.1,24.6-14,4.6-5.4,3-14.3,2.5-20.8h-.2Z"/><path d="M1592,314.4c0-2.2,0-4.4-1-6.4s-2.8-3.6-5-3.6-3.8,1.4-4.9,3-1.7,3.6-2.6,5.4c-1.4,3.1-3.4,5.9-5.9,8.2-.8.8-1.8,1.6-1.9,2.7-.2,1.2.7,2.3,1.6,3.3,2.3,2.6,4.7,5.3,7,8-2.7-.5-5.2-1.7-7.8-2.5s-5.6-1-8,.4c-2.6,1.6-3.8,4.7-4.2,7.7s-.4,6.1-1.3,9c-1,2.9-2.9,6.1-1.2,8.6,1,1.4,3,1.9,4.7,1.7,1.7-.3,3.3-1.2,4.8-2.1,6.8-4.1,18.1-9,21.7-16.6,3.7-7.5,4-18.6,3.9-26.8h.1Z" class="cls-33"/><path d="M1597.3,332.4h0c0-.5,0-1-.2-1.1-.3-.1-.6.1-.8.4-1.5,1.9-2.5,4.2-4.3,5.8v.2c0,.1.3-.7.2-.7,1.2-1.2,1.8-2.9,2.4-4.5.3-.8.6-1.7.9-2.5,0-.2,0-.4.3-.5s.4,0,.4.2" class="cls-3"/><path d="M1592,314.4c0-2.2,0-4.4-1-6.4s-2.8-3.6-5-3.6-3.8,1.4-4.9,3-1.7,3.6-2.6,5.4c-1.4,3.1-3.4,5.9-5.9,8.2-.8.8-1.8,1.6-1.9,2.7-.2,1.2.7,2.3,1.6,3.3,2.3,2.6,4.7,5.3,7,8-2.7-.5-5.2-1.7-7.8-2.5s-5.6-1-8,.4c-2.6,1.6-3.8,4.7-4.2,7.7s-.4,6.1-1.3,9c-1,2.9-2.9,6.1-1.2,8.6,1,1.4,3,1.9,4.7,1.7,1.7-.3,3.3-1.2,4.8-2.1,6.8-4.1,18.1-9,21.7-16.6,3.7-7.5,4-18.6,3.9-26.8h.1Z" style="isolation:isolate" fill="url(#linear-gradient-27)" stroke-width="0" opacity=".3"/></g><g><path fill="#8bd0fc" stroke-width="0" d="M306.4,411.6c-1.6-.8-3.8-1.1-5.1.2-1.2,1.3-1,3.3-.6,5s.9,3.7,0,5.2c-.5.9-1.5,1.5-1.9,2.5-.7,1.4.1,3.2,1.3,4.2s2.7,1.6,4.1,2.3c1.4.7,2.8,1.8,3.2,3.3-1.5.3-3,0-4.5-.2-1.9-.1-3.9.2-5.5,1.3-1.6,1.1-2.6,3-2.3,5,.3,2,2,3.5,3.6,4.7,2.1,1.6,4.3,3.1,6.6,4.5.7.4,1.5.8,2.3.6.7-.1,1.1-.7,1.6-1.2,1.5-1.7,2.9-3.5,4.1-5.4,3.9-5.6,3.5-11.1,1.8-17.4-1.4-5.1-3.6-12-8.6-14.6h-.1Z"/><path d="M317.1,413.3c-.5-.8-1.3-1.7-2.3-1.6-.8.1-1.3.8-1.6,1.5-1.1,2.7-.1,5.9-1.4,8.5-.9,2.1-3.1,3.7-3.2,5.9,0,3.3,4.2,4.9,5.4,8-4.7-2.8-10.9-2.9-15.6-.1-.8.5-1.7,1.1-2,2-.5,1.3,0,2.8.8,3.9,1.9,3.2,4.9,5.5,7.8,7.9.4.3.9.7,1.4.9,1.2.4,2.5,0,3.5-.9s1.6-1.9,2.3-2.9c2.1-2.9,4.7-4.8,7.4-7,2.2-1.8,1.8-3.9,1.8-6.6,0-6.7-.5-13.8-4.2-19.6h0Z" class="cls-67"/><path d="M317.9,424.2c-.3-2.8-1-5.8-3-7.8-.9,1.6-.6,3.6-.4,5.4.6,3.6,1.5,7.1,2.6,10.5-1-2.2-2.8-4.1-4.9-5.1-.3-.1-.7-.3-.9,0s-.1.3-.1.5c0,1.6,1.3,2.9,2.6,3.9,1.5,1.2,3.1,2.4,4.7,3.3-.5-3.5-.1-7.1-.5-10.7h-.1Z" class="cls-40"/><path d="M303.8,435.6c-1.2,0-2.5.1-3.5.7s-1.9,1.6-2.1,2.8c-.3,2.1,1.4,3.9,3,5.1.6.4,1.2.9,1.9,1s1.5-.3,1.7-1c.2-1.1-1.2-2.1-.9-3.1,1-2.8,6.8-.9,8.3-3.2-2-1.5-5.8-2.3-8.3-2.3h-.1Z" class="cls-40"/><path d="M323.3,435.4c-.2,1.4-1.1,2.5-1.9,3.6-.9,1.2-1.8,2.5-2.7,3.7-.7,1-1.4,2-2.2,2.9-1.1,1.3-2.5,2.4-3.9,3.3-.3.2-.6.3-.9.3s-.6-.2-.7-.5c2.9-2.8,5.5-5.8,7.8-9.1.9-1.3,1.9-2.5,2.7-3.8.4-.7,2.2-2.9,1.7-.4h.1Z" class="cls-73"/><path d="M327.8,428v.2c-.1-.3,0-.7.2-1,.1-.2.4-.4.6-.3,1.3.3-.6,3.3-1,3.7-.9,1.1-2.1,1.9-3.2,2.7-1,.9-1.3.5-1.7,1.7.9-2.9,4-5.1,4-8.2s0-.4-.1-.5c-.2-.2-.5-.2-.7,0s-.3.4-.5.7c-.1.2-.1.6.1.6" class="cls-3"/></g><g><path fill="url(#linear-gradient-28)" stroke-width="0" d="M1710.3,287c-.6-.9-1.2-1.9-2.2-2.4-1-.4-2.1-.3-3.1-.2-3.3.2-6.6-.3-9.9.2s-6.7,2.3-7.6,5.5c-1.2,3.9,1.7,6.7,2.6,10.2s-.3,8.1.7,11.3c1.6,5,4.4,6,9.6,5.5,5.1-.5,11.1-4,14.2-8,6.5-8.3.5-14.5-4.2-22h0Z"/><path fill="url(#linear-gradient-29)" stroke-width="0" d="M1693.3,302.1c-2.5-4.3-6.9-7.9-11.8-8.2-1.6,0-3.2.2-4.7-.3-1-.3-1.9-.9-2.8-1.2-3.8-1.4-8.2,1.3-10.1,4.8-2,3.6-2.2,7.8-2.3,11.9,0,1.7,0,3.5.6,5,.5,1,1.4,1.9,2.3,2.6,3.7,2.6,8.5,2.6,12.9,2,3.1-.4,16.6,3.4,18.3,1.7,3.3-3.2-.5-15-2.4-18.3h0Z"/><path fill="url(#linear-gradient-30)" stroke-width="0" d="M1695.7,317.2c7.8-6,20.7-9.8,30-6.7,3.3,1.1,6.9,3.6,6.6,7.1-.2,2.4-2.3,4.3-2.9,6.6-.6,2.5.6,5.4-.5,7.8-.6,1.4-1.9,2.4-3.2,3.3-3.3,2.3-6.8,4.4-10.5,6.2,1.6-5.6.4-11.9-3.1-16.5s-9.2-7.5-15-7.5"/><circle cx="1696.4" cy="307.8" r="1.2" class="cls-39"/><circle cx="1697.6" cy="312.6" r="1.2" class="cls-39"/><circle cx="1701" cy="311.3" r="1.2" class="cls-39"/><path d="M1696.2,307.6c1,2.9,1.1,6,.4,8.9-.2,0-.8,1.2-.9,1.4.9-.8,1.3-2,2.1-3,1-1.4,2.2-2.6,3.3-3.9" class="cls-7"/><path fill="url(#linear-gradient-31)" stroke-width="0" d="M1693.5,330.4c-1.1,4.7-4.8,8.9-3.9,13.6.3,1.7,1.2,3.2,2.4,4.5,5,5.6,14.8,5.4,20.2.2,5.4-5.2,6.2-14.2,2.6-20.8-2.4-4.5-10-11.6-15.8-10.9-7,1-4.1,7.4-5.5,13.3h0Z"/><path fill="url(#linear-gradient-32)" stroke-width="0" d="M1675.7,314.9c-4.4.7-9.1,2.5-11.1,6.5-1.1,2.2-1.2,4.7-1.2,7.2s0,6.4,1.4,9c1.9,3.3,5.8,4.9,9.4,6.3,3.3,1.2,6.8,2.5,10.3,1.7,5.3-1.1,8.6-6.7,9.6-12,.8-4.2,3.8-13.4,1.1-16.5-3-3.4-15.6-2.9-19.5-2.2h0Z"/></g><g><path fill="url(#linear-gradient-33)" stroke-width="0" d="M1826.5,450.3c.3-4.9-.3-9.3-1.2-13.9-1.2-2.7-2.2-5.5-2-8.2l.5.6c-2.1-2.9,3.1-7.2,5-8.3,4-2.3,9.2-3.3,13.5-4.8,4.4-1.5,8.9-3.1,13.5-2.6.3,0,.7.1.9.3.4.5,0,1.2-.4,1.7-1.8,2.1-4.1,3.2-6.3,4.5,2.7,1.5,5.4,2,7.7,4.5.6.6,1.2,1.4,1.2,2.3s-.5,1.8-1.1,2.5c-3.8,4.6-11.1,5.5-16.1,2.3,3.1,2.3,5.6,5.5,7.1,9,.7,1.6,1.2,3.3,1,5s-1.3,3.4-2.9,3.9c-.9.3-2,.2-3,0-3.5-.7-6.8-2.4-9.3-4.8v.4c0,2.4-.5,4.8-1.3,7.1-.4,1.1-.9,2.2-1.7,3h0c-.9.9-2.3,1.3-3.4.7-1.7-.9-1.7-3.2-1.6-5.1h0Z"/><g><path d="M1839.8,425.2c-7.1-.6-14.5.4-21.3-1.6,8.1,3.2,15.2,8.4,22.1,13.6" class="cls-6"/><path d="M1834.8,438.8c-3.9-5.2-8.7-9.7-14.1-13.4" class="cls-6"/><circle cx="1840.1" cy="425.4" r="1.4" class="cls-39"/><circle cx="1841" cy="437.4" r="1.4" class="cls-39"/><circle cx="1834.8" cy="438.9" r="1.4" class="cls-39"/><path fill="url(#linear-gradient-34)" stroke-width="0" d="M1840.4,419.2c-1.2.3-2.4.6-3.3,1.5-2.5,2.3-.8,6.4-.8,9.9s-4.4,8.6-9,8.4c1.7,5.4,3.3,11.6.2,16.2-1.7-1.1-1.8-3.4-2-5.4-1.1-11.3-10-20.1-18.3-27.9-.7-.6-1.4-1.4-1.3-2.3,0-1.4,1.8-2,3.2-2.1,3.1-.2,6.2.2,9.2.2,10.4,0,20.1-5.1,30.4-7.1,2.2-.4,11.1-.7,7.8,4-1.1,1.5-5.5,1.8-7.3,2.3-3,.8-5.9,1.5-8.9,2.3h.1Z"/></g></g><g><path fill="url(#linear-gradient-35)" stroke-width="0" d="M1452.9,462.8c1.8,3.7,2.7,7.3,3.4,11,0,2.4,0,4.9,1,7l.2-.6c-.7,2.9,4.6,4.6,6.4,4.8,3.8.5,8.1-.3,11.9-.5s7.8-.4,11.2-2.2c.2-.1.5-.3.6-.5.2-.5-.3-.9-.8-1.2-2-1.1-4.1-1.2-6.3-1.5,1.6-2,3.6-3.2,4.6-5.8.3-.7.4-1.4.2-2.1-.2-.7-.9-1.2-1.6-1.6-4.3-2.3-10.3-.8-13.1,3.2,1.7-2.8,2.6-5.9,2.6-9.2s0-2.9-.8-4.1c-.7-1.2-2-2.2-3.4-2.1-.8,0-1.6.5-2.3.9-2.5,1.6-4.5,3.9-5.7,6.6v-.3c-.8-1.8-1.9-3.5-3.2-5-.6-.7-1.3-1.4-2.2-1.8h-.2c-.9-.3-2.1-.2-2.8.6-1,1.2-.3,3,.4,4.5h0Z"/><g><path d="M1471,478c-5.3,2.7-11.3,4.2-15.9,7.9,5.2-5,9.1-11.2,12.8-17.4" class="cls-2"/><path d="M1462.8,469.1c-1.4,5.2-3.7,10.2-6.7,14.7" class="cls-2"/><circle cx="1471.2" cy="477.8" r="1.2" class="cls-39"/><circle cx="1468.1" cy="468.2" r="1.2" class="cls-39"/><circle cx="1462.8" cy="469" r="1.2" class="cls-39"/><path fill="url(#linear-gradient-36)" stroke-width="0" d="M1473.3,482.4c-1,.1-2.1.2-3-.1-2.7-1-2.6-4.7-3.7-7.3-1.5-3.5-6.1-5.2-9.5-3.6-.4-4.6-1.1-9.9-4.9-12.6-1,1.3-.3,3.2,0,4.8,2.7,9.1-6.6,18.1-10.6,26.7-.3.7-.3,1.4-.3,2.2,0,3.7,12.9-1,15.3-1.9,8.1-3.2,17.1-2.3,25.6-4,1.8-.4,8.8-2.9,4.8-5.5-1.3-.9-4.8.3-6.3.5-2.5.3-5,.6-7.6,1h0v-.2h.2Z"/></g></g></svg>