<svg xmlns="http://www.w3.org/2000/svg" xmlns:xlink="http://www.w3.org/1999/xlink" id="mobile" viewBox="0 0 980 504"><defs><linearGradient id="linear-gradient" x1="487.16" x2="495.14" y1="-16.41" y2="454.47" gradientUnits="userSpaceOnUse"><stop offset="0" stop-color="#3f60ff"/><stop offset="1" stop-color="#5a7fe6"/></linearGradient><linearGradient id="linear-gradient-2" x1="486.83" x2="494.81" y1="-134.19" y2="615.03" gradientUnits="userSpaceOnUse"><stop offset=".17" stop-color="#3b45ff" stop-opacity=".6"/><stop offset=".47" stop-color="#598ae8" stop-opacity=".81"/><stop offset=".69" stop-color="#6db9d9" stop-opacity=".95"/><stop offset=".8" stop-color="#75cbd4"/></linearGradient><linearGradient id="linear-gradient-3" x1="60.12" x2="174.61" y1="454.16" y2="311.58" gradientUnits="userSpaceOnUse"><stop offset="0" stop-color="#3b45ff" stop-opacity=".6"/><stop offset=".04" stop-color="#4153fa" stop-opacity=".64"/><stop offset=".17" stop-color="#5177ee" stop-opacity=".75"/><stop offset=".29" stop-color="#5d95e5" stop-opacity=".84"/><stop offset=".42" stop-color="#68addd" stop-opacity=".91"/><stop offset=".54" stop-color="#6fbdd8" stop-opacity=".96"/><stop offset=".67" stop-color="#73c7d5" stop-opacity=".99"/><stop offset=".8" stop-color="#75cbd4"/></linearGradient><linearGradient id="linear-gradient-4" x1="62.82" x2="156.82" y1="454.29" y2="337.24" gradientUnits="userSpaceOnUse"><stop offset="0" stop-color="#3b45ff" stop-opacity=".6"/><stop offset=".06" stop-color="#4153fa" stop-opacity=".64"/><stop offset=".21" stop-color="#5177ee" stop-opacity=".75"/><stop offset=".37" stop-color="#5d95e5" stop-opacity=".84"/><stop offset=".53" stop-color="#68addd" stop-opacity=".91"/><stop offset=".68" stop-color="#6fbdd8" stop-opacity=".96"/><stop offset=".84" stop-color="#73c7d5" stop-opacity=".99"/><stop offset="1" stop-color="#75cbd4"/></linearGradient><linearGradient id="linear-gradient-5" x1="44.05" x2="111.56" y1="445.59" y2="348.82" xlink:href="#linear-gradient-4"/><linearGradient id="linear-gradient-6" x1="117.2" x2="152.28" y1="473.5" y2="393.69" xlink:href="#linear-gradient-4"/><style>.cls-3,.cls-4,.cls-6,.cls-8,.cls-9{isolation:isolate}.cls-20,.cls-21,.cls-22,.cls-23,.cls-3,.cls-4,.cls-6,.cls-8,.cls-9{stroke-width:0}.cls-6{fill:#52b1ff}.cls-3{fill:#99c8ff}.cls-25,.cls-3,.cls-4,.cls-9{opacity:.15}.cls-23,.cls-4,.cls-8{fill:#eee}.cls-6{opacity:.21}.cls-8{opacity:.4}.cls-9{fill-rule:evenodd}.cls-21,.cls-9{fill:#fff}.cls-20{fill:#f2c8f5}.cls-22{fill:#fadcf7}</style></defs><g id="BG-2"><g id="g1089"><path d="M980.09,324.65v179.4H.09v-183.5c47.35-6.21,80.59-8.62,46.5,25.5-13.98,14.34-22.06,30.22-22.06,50.25t0,.02v.05h.01v.02s-.01.02,0,.03v.04s0,.04.01.06c0,.01.06.92.06.93h0c.09,1.22.28,2.76.39,3.37-.01,0,0,.02,0,.02,3.96,26.58,29.98,40.82,55.94,43.41,37.86,4.66,78.61-8.16,112.46-21.03,40.69-15.78,85.28-22.82,129.59-19.7h.02c57.77,4.06,106.19,24.55,136.34,46.84,12.97,9.59,22.55,19.5,28.04,28.59h17.7c0-3.67,1.04-13.16,1.65-15.91,12.08-67.57,85.9-58.19,151.66-37.64.1,0,.08.01.18.05.01,0,.02,0,.02,0,.14.05.3.1.45.15h.02c23.83,7.4,63.79,23.6,137.44-3.94,9.42-3.52,18.58-7.51,27.35-11.83h.01c78.59-38.59,93.84-85.16,126.15-95.27,11.06-3.42,19.97.44,27.57,8.99.48.54,1.51.74,2.5,1.1Z" class="cls-21"/><path id="path972" d="M-.31,163.75v120.4c83.4,24.8,100.8,9.7,68.4,42.3-10.1,10.1-24.9,20-31.4,29.4-62.5,91.1,34.1,145.4,119.5,102.6,115.2-57.8,207.1-70.8,302.8-7.8C513.09,409.95-.31,163.75-.31,163.75Z" class="cls-6"/><path d="M980,242.15v127.6c-47.12-17.68-86.33,15.05-138.97,41.03-.2.09-.4.19-.59.29-11.73,5.76-24.13,11.19-37.43,15.63-4.02,1.35-8.13,2.61-12.32,3.75-4.2,1.16-8.5,2.21-12.89,3.13-3.49.73-7.04,1.39-10.65,1.95-.03.01-.06.02-.1.02-.28.04-.56.09-.84.13-2.67.41-5.36.76-8.1,1.07-1.89.21-3.81.4-5.74.56-1.27.11-2.54.21-3.83.29-12.08.79-24.85.57-38.42-.94-.04,0-.09-.01-.13-.01-12.41-1.39-25.48-3.85-39.29-7.6,0,0,7.98-5.34,21.38-14.22.37-.25.74-.49,1.12-.74.15-.1.3-.2.46-.31,17.76-11.75,44.32-29.23,74.28-48.61.06-.03.12-.07.18-.12.42-.27.85-.54,1.27-.82.27-.17.53-.34.8-.51.26-.17.52-.33.78-.51.79-.51,1.59-1.02,2.39-1.53.84-.55,1.69-1.1,2.54-1.65.71-.46,1.43-.92,2.15-1.38.43-.28.86-.55,1.29-.83.35-.23.71-.46,1.07-.69.35-.23.71-.46,1.07-.69.59-.38,1.18-.76,1.78-1.15,80.19-51.55,177.11-111.49,196.74-113.14Z" class="cls-6"/><path fill="url(#linear-gradient)" stroke-width="0" d="M980.29,163.35v163c-8.77-8.78-18.91-15.36-30.76-11.65-29.99,8.65-47.6,56.8-125.66,95.13h0c-32.78,16.15-63.84,22.93-65.71,22.93-23.96,5.09-42.12,3.89-48.47,3.89-23.88-1.3-36.64-6.71-50.61-11.05h-.02c-.15-.06-.31-.11-.45-.15,0,0,0,0-.02,0-.1-.04-.08-.05-.18-.05-65.55-20.48-139.64-30.23-151.66,37.64-.02.09-.04.18-.05.27-.2,1.15-.39,2.31-.55,3.49h0c-.36,2.57-.63,5.22-.82,7.95-.05.68-.09,1.37-.13,2.07-.04.67-.07,1.35-.1,2.03h-17.7c-5.48-9.07-15.04-18.97-27.97-28.54-30.03-22.22-78.27-42.68-135.82-46.84h-.04c-1.55-.11-3.09-.21-4.63-.3-75.27-4.26-125.62,20.81-148.01,28.17h-.01c-31.65,11.12-80.18,20.04-111.13,7.87-.01.01-.02,0-.03,0-15.07-5.54-24.84-14.57-29.83-23.92-.42-.42-3.93-7.43-4.86-14.18-.01-.02-.02-.05-.01-.07-.11-.55-.6-4.45-.5-4.55-.01-.02-.01-.03-.01-.05h0s-.01-.03-.01-.04h.01c0-.1-.22-4.67.19-7.93.01,0,.01-.02,0-.03,1.05-4.19.89-20.89,22.91-43.56.01-.01.01-.02.02-.02,4.21-4.46,11.29-12.3,12.48-18.32.1,0,.22-1.5.17-2.19-.68-10.83-26.44-8.32-60.22-3.89V.05h980c.3,0,.2-10.1.2,163.3Z"/><path fill="url(#linear-gradient-2)" stroke-width="0" d="M979.98,163.35v163c-18.81-18.82-32.54-15.45-52.63,2-24.43,21.17-42.45,51.37-103.76,81.48h0c-32.78,16.15-63.82,22.93-65.7,22.93-23.95,5.09-42.11,3.89-48.46,3.89-23.87-1.3-36.63-6.71-50.6-11.05h-.02c-.15-.06-.31-.11-.45-.15,0,0,0,0-.02,0-.1-.04-.08-.05-.18-.05-77.94-24.36-149.72-27.77-153.28,53.45h-17.7c-5.48-9.07-15.04-18.97-27.96-28.54-64.92-48.05-169.15-64.79-270.94-25.26-5.68,2.2-12.14,4.53-17.5,6.29h-.01c-31.7,11.13-80.17,20.03-111.11,7.87-.01.01-.02,0-.03,0-15.02-5.52-24.81-14.53-29.82-23.92-.67-.67-4.04-8.18-4.86-14.18-.01-.02-.02-.05-.01-.07-.06-.29-.58-4.47-.5-4.55-.01-.02-.01-.03-.01-.05h0s-.01-.03-.01-.04h.01c0-.1-.26-4.34.19-7.93.01,0,.01-.02,0-.03,1.43-5.72,1.14-21.15,22.9-43.56.01-.01.01-.02.02-.02,4.25-4.49,11.3-12.33,12.48-18.32.1,0,.22-1.46.17-2.19-.68-10.83-26.43-8.32-60.21-3.89V.05h979.78c.3,0,.2-10.1.2,163.3Z"/><path d="M299.1,370.06c54.02,1.57,108.75,33.57,148.45,72.21-65.32-41.76-163.37-54.46-259.26-17.22-5.68,2.2-12.14,4.53-17.49,6.29h-.01c-31.7,11.13-80.18,20.03-111.11,7.87-.01.01-.02,0-.03,0-15.02-5.52-24.81-14.53-29.82-23.92-.68-.67-4.04-8.18-4.86-14.18-.01-.02-.02-.05-.01-.07-.06-.29-.58-4.47-.5-4.55,0-.02,0-.03,0-.05h0s-.01-.03-.01-.04h.01c0-.1-.26-4.34.19-7.93,0,0,0-.02,0-.03,1.43-5.72,1.14-21.15,22.9-43.56.01,0,.01-.02.02-.02,4.25-4.49,11.3-12.33,12.48-18.32.1,0,.22-1.46.17-2.19-.68-10.83-26.43-8.32-60.21-3.89v-75.2c102.67-33.59,217.31-4.73,229.94,33.69,10.61,32.29-49.99,73.94-35.92,95.11,11.65,17.51,56.87-5.4,105.08-3.99Z" class="cls-3"/><path d="M979.99,236.38v89.97c-18.81-18.82-32.54-15.45-52.63,2-24.43,21.17-42.45,51.37-103.76,81.48h-.01c-32.77,16.15-63.82,22.93-65.69,22.93-23.96,5.09-42.11,3.89-48.46,3.89-23.88-1.3-36.63-6.71-50.6-11.05h-.02c-.15-.06-.31-.11-.45-.15,0,0-.01,0-.02,0-.1-.04-.08-.05-.18-.05-77.94-24.36-149.72-27.77-153.28,53.45h-17.69c-.04-.07-.08-.14-.13-.21,17.41-44.01,47.63-85.75,86.93-107.7,90.28-50.39,217.69,9.66,225.25-12.19,6.25-18.09-86.43-43.6-86.8-87.79-.54-65.88,202.52-74.49,267.54-34.58Z" class="cls-3"/><g id="g506"><path fill="url(#linear-gradient-3)" stroke-width="0" d="M160.79,434.45c8.2-81.2-102-110.8-136.3-38,6,56.7,81.3,55.3,136.3,38Z"/><path fill="url(#linear-gradient-4)" stroke-width="0" d="M160.79,434.55c-45.3,14.1-123.8,23-135.9-34.2,18.9-33.1,70.1-40.9,64-16.8-4.3,19,11.1,51.4,36.3,30.8,13.2-11.6,39.2-13.5,35.6,20.2Z"/><path fill="url(#linear-gradient-5)" stroke-width="0" d="M25.69,404.15c16-24.4,51.1-26.9,40.8-2.5-4.2,15.5,10.6,35.3,25.3,43.3-32-1.5-58.5-12.4-66.1-40.8Z"/><path fill="url(#linear-gradient-6)" stroke-width="0" d="M151.89,437.05c-13.3,3.6-26.9,6.1-40.6,7.4,9.9-10,37.9-29.1,40.6-7.4Z"/><path fill="#99c8ff" stroke-width="0" d="M160.79,434.45c8.2-81.2-102-110.8-136.3-38,6,56.7,81.3,55.3,136.3,38Z" opacity=".15"/><path d="M45.49,432.05c60.7-78.6,140-102.1,107.3-39.6" style="isolation:isolate" fill="none" stroke="#eee" stroke-dasharray="0 0 0 0 0 0 26.49 1.89 .76 1.89 13.24 1.89" stroke-miterlimit="10" stroke-width=".79" opacity=".5"/></g></g><g id="pages"><path id="path1229" d="M395.5,447.35c-15.1-1.9-26.2,1.3-43,11.1-25.1-9.8-28.9-23.5-28.9-23.5,21.1-16.4,61.4-9.1,70.7-5.3-.4,7.8,1.3,17.7,1.2,17.7Z" style="isolation:isolate" fill="#52b1ff" stroke-width="0" opacity=".31"/><g id="g1235"><path id="path1231" d="M625,407.45c24.3.2,37.3-16,39.3-13.5,16.8,22.1,19.1,12.9,20,16.1.7,1.3-1.5,11.3-21.3,14.7-12,2-28.1,2-32.2-.1-3.8-3.7-9.4-17.2-5.8-17.2Z" style="isolation:isolate" fill="#f7fcff" stroke-width="0" opacity=".31"/><path id="path1233" d="M651.1,426.35c14.9-.9,26.1-6.1,32-19.4,4.6,4.8-.5,17.6-32,19.4Z" style="isolation:isolate" fill="#d4e7ec" stroke-width="0" opacity=".5"/></g></g></g><path d="M165.2,437.45c-.8,1-2.4-.1-1.6-1.1s2.4,0,1.6,1.1Z" class="cls-9"/><path d="M174.9,437.75c-.3.3-.8,0-.5-.4s.7,0,.5.4Z" class="cls-9"/><path d="M164.9,450.85c-.3.4-.8,0-.6-.4s.9,0,.6.4Z" class="cls-9"/><path d="M162.8,446.15c-.4.5-1.2-.1-.8-.6.1-.2.5-.3.7-.2.3.2.3.5.1.8.1,0,0,0,0,0Z" class="cls-9"/><path d="M146.7,443.05c-.4.5-1.2,0-.8-.6.1-.2.4-.3.7-.2s.3.5.1.8c.1,0,0,0,0,0Z" class="cls-9"/><path d="M140,447.25c-.1.2-.3.2-.5.1s-.2-.3-.1-.5.3-.2.5-.1.2.3.1.5h0Z" class="cls-9"/><path d="M143,445.25c-.1.2-.3.3-.5.2s-.3-.3-.2-.5c0,0,0-.1.1-.1.4-.4,1,0,.6.4Z" class="cls-9"/><g id="right_page" data-name="right page"><path id="path575" d="M822.71,59.53c29.21,1.74,73.42,12.38,95.65,27.73-9.24,25.81-38.63,53.28-68.97,70.8l-10.11-10.38,5.58,12.82c-13.25,7.41-24.85,12.03-36.71,14.65-20.49-6.71-44.3-40.98-44.3-40.98,24.85-11.07,52.06-36.19,58.86-74.64h0Z" class="cls-8"/><path id="path577" d="M899.62,88.3c-15.26-5.58-48.48-15.43-63.3-18.49-2.18-.44-4.36.87-5.06,2.96v.09c-.78,2.35.61,4.88,3.05,5.58,12.82,3.4,48.74,13.08,61.3,19.27,2.27,1.13,5.06.44,6.54-1.74.09-.09.09-.17.17-.26,1.57-2.62.35-6.28-2.7-7.41Z" class="cls-4"/><path id="path579" d="M893.78,102.86c-10.46-4.62-60.17-21.19-63.91-21.54-1.74,4.62-12.21,22.67-13.95,23.8,4.62,2.88,28.77,14.21,31.13,16.57l1.92-2.35c6.1-7.67,15.87-11.51,25.64-10.11,5.84.78,11.16,1.74,11.68,2.35,3.14-3.14,7.5-8.72,7.5-8.72Z" class="cls-4"/><path id="path581" d="M814.95,107.57c-2.62,3.75-24.24,23.28-35.05,29.39,4.1,7.24,25.29,25.03,27.29,26.42,11.6-2.53,25.29-10.46,25.29-10.46l-5.84-6.1,16.57-21.97-28.25-17.26Z" class="cls-4"/><g id="g585" class="cls-25"><path id="path583" d="M918.37,87.34c-2.18,5.67-5.06,10.99-8.37,16.04-3.31,5.06-7.06,9.77-11.07,14.3-8.02,8.98-17.09,17.09-26.68,24.41-9.59,7.32-19.79,13.86-30.43,19.44-10.64,5.58-21.89,10.38-33.57,13.08h.35c-4.71-1.57-9.07-4.27-13.17-7.24-4.01-3.05-7.85-6.45-11.42-10.03-3.58-3.58-7.06-7.32-10.38-11.16-3.31-3.84-6.54-7.85-9.5-11.95l-.09.09c2.96,4.19,6.1,8.2,9.33,12.12,3.23,3.92,6.63,7.67,10.29,11.34,3.58,3.58,7.32,7.06,11.42,10.11,4.1,3.05,8.46,5.84,13.25,7.5h0c11.86-2.7,23.11-7.41,33.83-13.08,10.73-5.67,20.93-12.21,30.52-19.62,9.59-7.41,18.57-15.61,26.59-24.68,4.01-4.53,7.67-9.33,10.99-14.47,3.23-5.14,6.1-10.55,8.11-16.22h0Z" class="cls-23"/></g><g id="g595"><path id="path587" fill="none" d="M885.84,141.84c7.59-6.37,11.68-16.22,3.58-21.54-6.45-4.19-19.18,1.4-24.94,7.67" style="isolation:isolate" stroke="#eee" stroke-linecap="round" stroke-linejoin="round" stroke-width="1.74" opacity=".15"/><path id="path589" d="M858.37,122.57c.87-.96,2.27-1.22,3.4-.52,1.48.87,3.75,2.27,6.45,4.01l-3.31,2.96,6.1-1.13c7.59,5.06,17.35,11.68,23.37,15.61,1.4.96,1.66,2.88.52,4.1-13.78,15-32.61,19.01-35.14,19.27-1.31.17-17.88-16.04-20.4-19.01,4.01-5.67,9.24-14.39,19.01-25.29Z" class="cls-4"/><g id="g593" class="cls-25"><path id="path591" d="M840.5,149.16c3.92,4.01,7.85,7.85,11.95,11.68,2.01,1.92,4.1,3.84,6.28,5.49.26.17.52.44.96.52.35,0,.7-.09,1.05-.17.7-.09,1.4-.26,2.01-.44,1.31-.35,2.7-.7,4.01-1.13,2.62-.87,5.23-1.83,7.76-3.05,1.31-.52,2.53-1.22,3.75-1.83,1.22-.7,2.44-1.31,3.58-2.09,4.71-2.96,9.16-6.45,12.9-10.55l-.09-.09c-1.05.96-2.01,1.92-3.05,2.79l-1.57,1.31c-.52.44-1.05.87-1.66,1.31-1.13.78-2.18,1.66-3.4,2.44-.61.35-1.13.78-1.74,1.13l-1.74,1.05c-.61.35-1.22.7-1.83,1.05l-1.83.96c-1.22.61-2.44,1.22-3.75,1.74-2.53,1.13-5.06,2.09-7.67,2.96-1.31.44-2.62.78-3.92,1.13-.7.17-1.31.35-2.01.44-.17,0-.35.09-.52.09h-.26s-.09,0-.09,0h-.09s.09,0,.09,0h.09-.09s-.09-.09-.17-.09c-.09-.09-.26-.17-.35-.26-2.18-1.57-4.19-3.58-6.28-5.32-2.09-1.83-4.1-3.75-6.19-5.58-1.92-1.83-4.01-3.66-6.1-5.49h0Z" class="cls-21"/></g></g><path d="M918.37,87.34c-21.62-12.77-46.25-19.8-70.82-24.2-8.08-1.48-16.7-2.42-24.86-3.25,0,0,.4-.31.4-.31-1.3,7.04-3.37,13.89-5.99,20.54-2.64,6.62-6.08,12.96-10.5,18.55,4.29-5.69,7.51-12.09,10.05-18.73,2.53-6.63,4.46-13.52,5.7-20.48l.06-.35.34.04c10.26.92,21.01,2.28,31.13,4.26,22.47,4.65,44.97,11.58,64.49,23.92h0Z" class="cls-22"/><g opacity=".8"><path d="M855.52,146.47c.63-.87,1.9-1.47,3.31-1.84-1.17-.59-2.23-1.45-2.89-2.58-2.03-3.45,3.14-6.08,6.1-3.83.55.42,1.01.88,1.39,1.36.29-3.59,3.04-6.45,4.62-6.07,2.3.55,3.87,2.02,3.17,5.19-.14.65-.4,1.25-.73,1.81.82-.14,1.71-.19,2.68-.11,5.28.45,2.86,5.32-.33,6.26-.28.08-.57.14-.87.18.37.37.74.79,1.11,1.26,3.08,4.01-3.08,4.78-5.52,2.84-.14-.11-.27-.23-.4-.35-.22.92-.59,1.83-1.13,2.66-2.17,3.33-5.39,1.68-5.4-2.42,0-.36.03-.7.07-1.04-.49.24-1,.41-1.52.48-2.97.4-5.52-1.25-3.66-3.82Z" class="cls-20"/><ellipse cx="865.06" cy="144.57" fill="#dca4e4" stroke-width="0" rx="1.98" ry="1.37" transform="translate(38.87 438.92) rotate(-29.1)"/></g></g><g id="left_page" data-name="left page"><path id="path553" d="M171.58,139.34l-24.63-6.85,24.57,3.31c-.24-14.68-1.87-35.14-8.68-46.79-35.3-19.77-117.58-22.5-139.95-5.71,7.39,27.88,33.94,65.96,57.75,91.32,35.92-25.76,64.93-29.19,90.53-21.58.02-.07.4-5.63.4-13.71Z" class="cls-8"/><path id="path555" d="M39.29,95.15c-2.53-2.77-.99-7.38,2.78-8.03,62.79-11.52,97.99,1.98,108.63,4.32,1.67.35,2.86,1.75,2.94,3.46h0c.06,2.37-1.95,4.21-4.28,3.83-14.75-2.35-57.32-13.17-105.2-2.2-1.71.37-3.52-.01-4.81-1.3,0,0,.02-.07-.05-.09Z" class="cls-4"/><path id="path557" d="M41.74,101.43c45.26-7.59,95.99.89,95.99.89,0,0-9.27,7.56-6.04,20.87-21.31-2.84-68.33,11.65-68.33,11.65l-21.63-33.4Z" class="cls-4"/><path id="path559" d="M117.47,144.47c6.83-2.01,14.14-3.61,21.22-4.01-4.64-4.85-7.37-14.36-7.37-14.36-4.75.19-13.66,1.16-21.68,2.94l7.83,15.43Z" class="cls-4"/><path id="path561" d="M105.17,129.3c-17.1,3.15-37.81,9.49-37.81,9.49l15.94,20.21s15.26-8.31,31.56-13.79l-9.69-15.9Z" class="cls-4"/><g id="g565" class="cls-25"><path id="path563" d="M162.85,89.02c1.39,2.34,2.43,4.88,3.32,7.45.89,2.58,1.62,5.19,2.2,7.83,1.15,5.29,1.91,10.69,2.44,16.12.46,5.41.77,10.85.78,16.28.08,5.46-.04,10.86-.32,16.3l-.02.07-.07-.02c-7.73-2.26-15.78-3.5-23.79-3.48-.52.02-1.02-.04-1.54-.02l-1.49.06-3.04.11c-2.02.15-4.01.45-6.03.6-2,.37-3.99.68-5.93,1.06-1.95.46-3.91.92-5.88,1.44-7.76,2.21-15.21,5.24-22.34,9.01-7.13,3.77-13.95,8.06-20.56,12.7l-.05-.09c6.49-4.74,13.28-9.19,20.35-13.04,7.15-3.84,14.63-7,22.39-9.22,1.97-.53,3.92-.99,5.89-1.51,2-.37,4.01-.74,6.01-1.12,2.04-.22,4.02-.52,6.05-.67l3.06-.18,1.49-.06c.52-.02,1.02.04,1.54.02,8.08,0,16.21,1.25,23.98,3.6l-.8.53c.35-5.42.4-10.84.39-16.28-.01-5.44-.25-10.86-.65-16.25-.2-2.69-.53-5.42-.88-8.08s-.84-5.36-1.35-7.98c-.58-2.64-1.22-5.31-2.04-7.86-.85-2.42-1.83-4.94-3.13-7.33h0Z" class="cls-23"/></g><path id="path567" d="M149.44,132.84s25.56,2.9,37.5,5.63c11.94,2.74,11.18-15.96-.32-16.09-1.03-14.44-22.64-25.66-32.98-13.3-15.4-7.88-26.13,20.46-4.2,23.76Z" class="cls-4"/><g id="g571" class="cls-25"><path id="path569" d="M149.44,132.84l8.13.67c2.71.32,5.44.57,8.15.89,5.42.64,10.78,1.49,16.2,2.43,1.33.26,2.66.53,4.05.81,1.4.28,2.57.58,3.83.53s2.42-.56,3.35-1.35c.4-.41.81-.89,1.11-1.48.14-.26.3-.59.43-.84.07-.28.23-.6.3-.88.56-2.5-.05-5.3-1.49-7.43-.76-1.07-1.77-1.99-2.92-2.65-1.15-.66-2.53-1.01-3.85-1.05l.02-.07c1.4-.01,2.71.32,3.95.93s2.26,1.53,3.08,2.62c1.65,2.18,2.31,5.07,1.77,7.79-.26,1.33-.89,2.64-1.93,3.55-1.04.91-2.35,1.46-3.7,1.56-1.35.1-2.74-.18-4.06-.52-1.33-.26-2.66-.53-3.99-.79-5.33-.99-10.71-1.77-16.1-2.55-5.61-.76-10.94-1.46-16.34-2.17h0Z" class="cls-23"/></g><g opacity=".7"><path fill="#fad7f9" stroke-width="0" d="M157.89,105.51c14.16-5.28,26.17,2.16,28.72,16.87-.92-3.06-2.11-6.04-3.8-8.7-5.12-8.75-15.7-10.85-24.93-8.17h0Z"/></g></g><g><path d="M161.26,124.68s10.47,4.65,15.38,1.18c4.91-3.48.61-9.6-2.51-9.77-3.12-.17-9.98,2.56-12.87,8.59Z" class="cls-20"/><path d="M161.26,124.68s13.6-.09,15.44,1.37c2.18,1.73,1.6,3.02-2.41,3.06-4.01.04-12.03-2.21-13.03-4.43Z" class="cls-22"/><path d="M161.21,124.5s10.19-6.2,11.35-8.9c1.16-2.7-2.96-5.86-5.77-5.38-2.81.49-7.96,7.76-5.58,14.28Z" class="cls-20"/><path fill="#f494b9" stroke-width="0" d="M161.32,124.53c-.04.09-.06.14-.06.14l.06-.14Z"/><path d="M161.21,124.5c-.81.04-2.09-10.92.63-12.55,2.72-1.63,4.28,2.07,3.37,4.29-.9,2.22-3.21,8.22-4,8.26Z" class="cls-22"/><path d="M161.24,124.81c-.54-.71-1.89-8.19,2.57-8.02,4.46.17,8.38,8.64,5.8,9.43-2.57.79-7.2.15-8.37-1.4Z" class="cls-22"/><path d="M158.88,125.29c.09.6,3.68,1.2,4.39,1.09.71-.11-1.02-1.12-1.22-2.09-.2-.97-1.38-2.74-1.79-2.01-.41.72-1.54,1.94-1.38,3.02Z" class="cls-20"/></g></svg>